<svg xmlns="http://www.w3.org/2000/svg" xmlns:xlink="http://www.w3.org/1999/xlink" width="233.903" height="216.853" viewBox="0 0 233.903 216.853"><defs><style>.a,.t{fill:none;}.b{fill:#231f20;}.c{fill:#f7022d;}.d,.o{opacity:0.1;}.e{fill:#f87316;}.f{fill:#fce22b;}.g{fill:#2fad4c;}.h{fill:#2c5efb;}.i{fill:#7316a8;}.j{fill:url(#a);}.k{fill:url(#b);}.l{fill:#fbbebe;}.m{fill:#fff;}.n{fill:#3f3d56;}.p{fill:#fbc8be;}.q{fill:#ffd037;}.r{fill:#a8a8a8;}.s{opacity:0.2;}.t{stroke:#535461;stroke-miterlimit:10;stroke-width:2px;}</style><linearGradient id="a" x1="0.5" y1="1" x2="0.5" gradientUnits="objectBoundingBox"><stop offset="0" stop-color="gray" stop-opacity="0.251"/><stop offset="0.54" stop-color="gray" stop-opacity="0.122"/><stop offset="1" stop-color="gray" stop-opacity="0.102"/></linearGradient><linearGradient id="b" x1="0.507" y1="1.003" x2="0.507" y2="0" xlink:href="#a"/></defs><g transform="translate(0.003 -0.18)"><ellipse class="a" cx="56.505" cy="4.321" rx="56.505" ry="4.321" transform="translate(69.185 208.391)"/><ellipse class="b" cx="56.505" cy="4.321" rx="56.505" ry="4.321" transform="translate(69.185 208.391)"/><path class="a" d="M214.561,84.615c7.922-7.071,20.384-8.512,31.725-7.942,35.615,1.768,67.767,18.964,95.572,38.413,10.066,7.043,19.978,14.63,26.515,24.325,13.3,19.738,9.355,47.083-9.143,63.343-6.294,5.532-13.922,9.774-21.754,13.544-13.927,6.685-28.955,12.051-44.76,13.577-11.272,1.091-22.684.2-33.89-1.316-31.3-4.262-62.035-13.638-87.793-29.717-11.3-7.045-21.946-15.8-26.6-27.2s-1.676-25.84,9.859-32.586c4.771-2.79,10.477-4.05,16.061-5.233,8.221-1.743,16.574-3.46,23.993-7,7.666-3.659,16.733-10.733,15.217-18.826C207.932,99.308,206.639,91.678,214.561,84.615Z" transform="translate(-142.33 -63.406)"/><path class="b" d="M214.561,84.615c7.922-7.071,20.384-8.512,31.725-7.942,35.615,1.768,67.767,18.964,95.572,38.413,10.066,7.043,19.978,14.63,26.515,24.325,13.3,19.738,9.355,47.083-9.143,63.343-6.294,5.532-13.922,9.774-21.754,13.544-13.927,6.685-28.955,12.051-44.76,13.577-11.272,1.091-22.684.2-33.89-1.316-31.3-4.262-62.035-13.638-87.793-29.717-11.3-7.045-21.946-15.8-26.6-27.2s-1.676-25.84,9.859-32.586c4.771-2.79,10.477-4.05,16.061-5.233,8.221-1.743,16.574-3.46,23.993-7,7.666-3.659,16.733-10.733,15.217-18.826C207.932,99.308,206.639,91.678,214.561,84.615Z" transform="translate(-142.33 -63.406)"/><path class="c" d="M548.738,44.386v.457a2.956,2.956,0,0,1-.018.394v.082c0,.11-.013.22-.023.327v.095a.357.357,0,0,1,0,.051,2.94,2.94,0,0,1-.026.3c-.01.1-.018.158-.026.24-.023.2-.049.394-.079.59-.018.13-.038.256-.059.388a.108.108,0,0,0,0,.028c-.013.064-.023.128-.036.194s-.013.074-.02.112a.281.281,0,0,1-.02.1,1.3,1.3,0,0,0-.041.2c-.015.066-.028.135-.043.2s-.02.1-.033.151-.038.171-.059.256a.034.034,0,0,0,0,.015l-.046.176-.054.215c-.023.087-.049.174-.072.256a.089.089,0,0,1-.02.069l-.077.256c-.082.271-.171.542-.256.81l-.092.256-.054.141a18.143,18.143,0,0,1-2.492,4.477c-.061.087-.128.171-.192.256a19.081,19.081,0,0,1-1.572,1.789L517.2,83.407,491.075,57.275a18.5,18.5,0,0,1-2.044-2.433,17.889,17.889,0,0,1-1.063-1.7,18.488,18.488,0,0,1-2.233-10.505c.028-.335.066-.67.112-1,.082-.588.194-1.173.332-1.753.028-.118.059-.235.089-.35.015-.059.031-.12.046-.176s.018-.072.028-.107l.077-.256h0c.061-.2.123-.4.189-.606l.095-.276c.138-.391.286-.767.45-1.16l.1-.227c.051-.115.1-.23.156-.345.087-.184.176-.368.256-.549l.023-.041h0c.041-.084.084-.164.128-.256l.151-.279c.064-.115.13-.23.2-.345.031-.054.064-.107.095-.164s.038-.059.056-.092a.113.113,0,0,0,0-.018h0c.041-.066.082-.133.125-.2s.095-.151.143-.225c.107-.166.217-.332.33-.5l.12-.171.151-.207c.051-.074.1-.146.161-.217l.194-.256c.061-.074.12-.151.179-.225l.064-.077.13-.158c.066-.082.135-.161.2-.24l.089-.1.015-.018.156-.174.174-.192c.164-.176.332-.353.511-.511l.2-.2.314-.3c.069-.064.138-.128.21-.189s.164-.148.256-.22l.164-.138c.054-.049.11-.095.164-.138a4.126,4.126,0,0,1,.332-.256l.169-.133c.281-.215.565-.422.856-.621l.174-.118.176-.115.166-.107.256-.153.123-.074.179-.1c.24-.141.48-.276.723-.4l.146-.077.225-.115.187-.092.187-.087.187-.089.189-.084.189-.082c.256-.11.511-.212.767-.309l.166-.1.2-.074.181-.064.153-.051.353-.112.181-.056.146-.041.143-.041q.128-.038.256-.069l.337-.087c.348-.084.7-.161,1.048-.225l.143-.026.2-.033.2-.033.256-.038.151-.02c.337-.043.675-.079,1.022-.1h2.374a1.473,1.473,0,0,1,.256.015h.174c.271.02.542.049.81.079l.363.049.256.036.2.033.2.033.133.023q.524.1,1.043.222l.424.11.118.033.181.051c.118.033.235.066.35.1l.153.049q.383.118.767.256l.174.064.227.087.342.138c.133.056.256.112.391.171l.153.066.21.1.187.087.184.092.232.118.184.1c.143.077.286.153.427.235l.179.1c.21.12.414.256.618.376l.166.107.176.115.174.118h0l.115.079c.255.171.488.35.728.534l.169.133c.11.087.222.176.332.256.054.043.11.089.164.138l.164.138.256.22c.072.061.141.125.21.189l.294.312.2.2.2-.2.312-.3c.069-.064.138-.128.21-.189s.164-.148.255-.22l.164-.138c.054-.049.11-.095.164-.138a4.13,4.13,0,0,1,.332-.256l.169-.133c.281-.215.565-.422.856-.621l.174-.118.176-.115.166-.107.243-.153.123-.074.179-.1c.24-.141.48-.276.723-.4l.146-.077.225-.115.187-.092.187-.087.187-.089.189-.084.189-.082c.256-.11.511-.212.767-.309.061-.023.125-.049.189-.069l.2-.074.184-.064.151-.051.353-.112.181-.056.146-.041.143-.041c.084-.026.169-.049.256-.069l.335-.087c.348-.084.7-.161,1.048-.225l.143-.026.2-.033.2-.033.255-.038.151-.02c.337-.043.675-.079,1.022-.1h2.351a1.473,1.473,0,0,1,.256.015h.174c.271.02.542.049.81.079l.363.049.256.036.2.033.2.033.133.023q.524.1,1.043.222l.424.11.118.033.181.051c.118.033.235.066.353.1l.151.049c.256.079.511.166.767.256l.171.064.227.087.342.138c.133.056.256.112.391.171l.153.066.21.1.187.087.184.092.233.118.187.1c.141.077.284.153.424.235l.179.1c.21.12.417.256.618.376l.166.107.176.115.174.118h.013l.115.079c.256.171.488.35.728.534l.169.133c.11.087.222.176.332.256.054.043.11.089.164.138l.164.138.212.189c.072.064.143.128.212.194l.12.11h0a.118.118,0,0,1,.018.018c.069.061.135.128.2.192l.092.089c.036.038.072.074.11.11l.2.207c.1.1.2.212.3.322.059.061.118.125.174.189.1.107.192.215.286.325l.3.36c.345.424.667.859.971,1.3l.123.187c.046.066.087.133.13.2l.11.171c.061.1.123.2.181.3l.161.276c.033.056.066.112.1.169l.074.133.074.133.107.2.1.2q.36.705.654,1.439l.084.207c.079.2.153.4.225.606l.064.184c.028.087.059.174.084.256s.051.156.074.235l.046.148c.023.072.043.143.064.215s.049.176.074.256c.038.143.074.286.11.432l.054.225c.026.107.049.215.072.322a.66.66,0,0,0,.028.138c.01.046.026.123.036.184s.02.1.028.146l.023.123a.23.23,0,0,0,.02.115c.02.038,0,.074.018.112l.038.23a1.421,1.421,0,0,0,.033.23c.013.077.023.171.033.256s.02.164.028.256l.015.141c0,.084.018.169.026.256v.125c0,.087.015.174.02.256a.039.039,0,0,1,0,.018v.33a2,2,0,0,0,.013.276h0v.284A3.265,3.265,0,0,1,548.738,44.386Z" transform="translate(-397.933 -25.61)"/><path class="d" d="M550.214,44.386v.457a2.956,2.956,0,0,1-.018.394v.082c0,.11-.013.22-.023.327v.095a.348.348,0,0,1,0,.051,2.922,2.922,0,0,1-.026.3c-.01.1-.018.158-.026.24-.023.2-.049.394-.079.59-.018.13-.038.256-.059.388a.114.114,0,0,0,0,.028c-.013.064-.023.128-.036.194s-.013.074-.02.112a.281.281,0,0,1-.02.1,1.3,1.3,0,0,0-.041.2c-.015.066-.028.135-.043.2s-.02.1-.033.151-.038.171-.059.256a.033.033,0,0,0,0,.015l-.046.176-.054.215c-.023.087-.049.174-.072.256a.089.089,0,0,1-.02.069l-.077.256c-.082.271-.171.542-.256.81l-.092.256-.054.141A18.488,18.488,0,0,0,541,30.822q-.5-.317-1.007-.6a18.47,18.47,0,0,0-22,3.158,18.519,18.519,0,0,0-2.256-1.917h0a18.2,18.2,0,0,0-1.911-1.211,18.514,18.514,0,0,0-17.791,0,18.263,18.263,0,0,0-2.624,1.753,18.875,18.875,0,0,0-4.6,5.384.091.091,0,0,1,0,.023,17.546,17.546,0,0,0-.79,1.582c-.133.3-.256.6-.371.9.028-.118.059-.235.089-.35.015-.059.031-.12.046-.176s.018-.072.028-.107l.077-.256h0c.061-.2.123-.4.189-.606l.095-.276c.138-.391.286-.767.45-1.16l.1-.227c.051-.115.1-.23.156-.345.087-.184.176-.368.256-.549l.023-.041h0c.041-.084.084-.164.128-.256l.151-.279c.064-.115.13-.23.2-.345.031-.054.064-.107.095-.164s.038-.059.056-.092a.109.109,0,0,0,0-.018h0c.041-.066.082-.133.125-.2s.095-.151.143-.225c.107-.166.217-.332.33-.5l.12-.171.151-.207c.051-.074.1-.146.161-.217l.194-.256c.061-.074.12-.151.179-.225l.064-.077.13-.158c.066-.082.135-.161.2-.24l.089-.1.015-.018.156-.174.174-.192c.164-.176.332-.353.511-.511l.2-.2.314-.3c.069-.064.138-.128.21-.189s.164-.148.256-.22l.164-.138c.054-.049.11-.095.164-.138a4.141,4.141,0,0,1,.332-.256l.169-.133c.281-.215.565-.422.856-.621l.174-.118.176-.115.166-.107.256-.153.123-.074.179-.1c.24-.141.48-.276.723-.4l.146-.077.225-.115.187-.092.187-.087.187-.089.189-.084.189-.082c.256-.11.511-.212.767-.309l.171-.112.2-.074.181-.064.153-.051.353-.112.181-.056.146-.041.143-.041q.128-.038.256-.069l.337-.087c.348-.084.7-.161,1.048-.225l.143-.026.2-.033.2-.033.256-.038.151-.02c.337-.043.675-.079,1.022-.1h2.374a1.473,1.473,0,0,1,.256.015h.174c.271.02.542.049.81.079l.363.049.256.036.2.033.2.033.133.023q.524.1,1.043.222l.424.11.118.033.181.051c.118.033.235.066.35.1l.153.049q.383.118.767.256l.174.064.227.087.342.138c.133.056.256.112.391.171l.153.066.21.1.187.087.184.092.233.118.184.1c.143.077.286.153.427.235l.179.1c.21.12.414.256.618.376l.166.107.176.115.174.118h0l.115.079c.256.171.488.35.728.534l.169.133c.11.087.222.176.332.256.054.043.11.089.164.138l.164.138.255.22c.072.061.141.125.21.189l.294.312.2.2.2-.2.312-.3c.069-.064.138-.128.21-.189s.164-.148.256-.22l.164-.138c.054-.049.11-.095.164-.138a4.12,4.12,0,0,1,.332-.256l.169-.133c.281-.215.565-.422.856-.621l.174-.118.176-.115.166-.107.243-.153.123-.074.179-.1c.24-.141.48-.276.723-.4l.146-.077.225-.115.187-.092.187-.087.187-.089.189-.084.189-.082c.256-.11.511-.212.767-.309.061-.023.125-.049.189-.069l.2-.074.184-.064.151-.051.353-.112.181-.056.146-.041.143-.041c.084-.026.169-.049.256-.069l.335-.087c.347-.084.7-.161,1.048-.225l.143-.026.2-.033.2-.033.256-.038.151-.02c.337-.043.675-.079,1.022-.1h2.351a1.473,1.473,0,0,1,.255.015h.174c.271.02.542.049.81.079l.363.049.256.036.2.033.2.033.133.023q.524.1,1.043.222l.424.11.118.033.181.051c.118.033.235.066.353.1l.151.049c.255.079.511.166.767.256l.171.064.227.087.342.138c.133.056.255.112.391.171l.153.066.21.1.187.087.184.092.232.118.187.1c.141.077.284.153.424.235l.179.1c.21.12.417.256.618.376l.166.107.176.115.174.118h.013l.115.079c.256.171.488.35.728.534l.169.133c.11.087.222.176.332.256.054.043.11.089.164.138l.164.138.212.189c.072.064.143.128.212.194l.12.11h0a.118.118,0,0,1,.018.018c.069.061.135.128.2.192l.092.089c.036.038.072.074.11.11l.2.207c.1.1.2.212.3.322.059.061.118.125.174.189.1.107.192.215.286.325l.3.36c.345.424.667.859.971,1.3l.123.187c.046.066.087.133.13.2l.11.171c.061.1.123.2.181.3l.161.276c.033.056.066.112.1.169l.074.133.074.133.107.2.1.2q.36.705.654,1.439l.084.207c.079.2.153.4.225.606l.064.184c.028.087.059.174.084.256s.051.156.074.235l.046.148c.023.072.043.143.064.215s.049.176.074.256c.038.143.074.286.11.432l.054.225c.026.107.049.215.072.322a.664.664,0,0,0,.028.138c.01.046.026.123.036.184s.02.1.028.146l.023.123a.23.23,0,0,0,.02.115c.02.038,0,.074.018.112l.038.23a1.428,1.428,0,0,0,.033.23c.013.077.023.171.033.256s.02.164.028.256l.015.141c0,.084.018.169.026.256v.125c0,.087.015.174.02.256a.039.039,0,0,1,0,.018v.33a1.99,1.99,0,0,0,.013.276h0v.284A3.271,3.271,0,0,1,550.214,44.386Z" transform="translate(-399.409 -25.61)"/><path class="e" d="M843.724,305.047v.406a.034.034,0,0,1,0,.015v.164l-.023.181a.931.931,0,0,1-.018.118h0v.095a.129.129,0,0,1,0,.031v.064a.511.511,0,0,1-.013.061q0,.023,0,.046a.146.146,0,0,1-.018.079h0l-.015.054-.015.064-.023.079v.023a.529.529,0,0,1-.026.079c-.023.084-.051.166-.079.256a.293.293,0,0,1-.028.079.311.311,0,0,1-.018.043,5.505,5.505,0,0,1-.746,1.362l-.059.079a5.625,5.625,0,0,1-.48.544l-8.062,7.983-7.975-7.975a5.694,5.694,0,0,1-.626-.741,5.833,5.833,0,0,1-.325-.511,5.662,5.662,0,0,1-.682-3.207,2.091,2.091,0,0,1,.036-.307c.026-.179.059-.358.1-.534a.409.409,0,0,1,.026-.107l.015-.054v-.033l.023-.079h0c.018-.061.038-.123.059-.184s.018-.056.028-.084q.061-.181.138-.353l.031-.072.046-.1c.028-.056.054-.112.084-.166v-.013h0l.041-.074.046-.084c.018-.036.038-.072.059-.107l.031-.049.015-.028h0c0-.02.023-.041.036-.061s.031-.046.043-.069.066-.1.1-.151l.036-.054.046-.064.049-.064.061-.079.054-.069.02-.023.038-.049.064-.074.026-.031h0l.049-.054c.015-.02.036-.038.054-.059s.1-.107.153-.161l.061-.059.094-.092.064-.059.077-.066.049-.041.051-.043.1-.082.054-.041c.084-.064.171-.128.256-.189l.054-.036.051-.036.051-.031.077-.049.036-.02.056-.033c.072-.043.146-.084.22-.123l.043-.023.069-.036.056-.028.059-.028.056-.026.056-.026.059-.026.233-.095.059-.02.061-.023.056-.02.046-.015.107-.033.056-.018.043-.013.043-.013.079-.02.1-.026c.1-.028.212-.051.319-.069h.291c.1-.013.2-.026.309-.033h.856l.256.026.112.015h.238c.107.018.212.041.319.066l.128.033h.036l.056.015.107.033.046.013c.079.026.156.051.233.082l.054.018.069.028.1.041.118.051.049.023.064.028.056.028.056.028.072.036.056.031.13.069.054.033c.064.036.128.074.189.115l.051.031.054.036.054.036h0l.036.026.222.161a.4.4,0,0,0,.051.041l.1.082.049.043.051.041.074.066.064.059.095.092a.7.7,0,0,1,.064.059.449.449,0,0,1,.061-.059l.095-.092.064-.059.074-.066.051-.041.049-.043.1-.082a.393.393,0,0,0,.051-.041l.256-.189.054-.036.054-.036.051-.031.074-.049.038-.02.054-.033q.11-.066.222-.123l.043-.023.069-.036.056-.028.056-.028.059-.026.056-.026.059-.026.233-.095.059-.02.061-.023.056-.02.046-.015.107-.033.056-.018.043-.013.043-.013.077-.02.1-.026q.161-.041.322-.069h.289c.1-.013.207-.026.309-.033h.856l.256.026a.267.267,0,0,1,.11.015h.24c.1.018.212.041.317.066l.13.033h.036l.056.015.107.033.046.013c.077.026.156.051.233.082l.051.018.069.028.1.041.12.051.046.023.064.028.059.028.056.028.069.036.059.031.128.069.056.033c.064.036.125.074.189.115l.051.031.051.036.054.036h0l.033.026q.115.077.222.161l.054.041.1.082.051.043.049.041.066.059.064.059.036.033h0l.061.059.028.026.033.033.061.064.095.1c.018.02.036.038.051.059l.089.1.092.11a4.248,4.248,0,0,1,.3.4l.038.056.038.061.033.051.056.092.049.082.031.054.023.041.02.041a.44.44,0,0,1,.033.059l.031.064c.074.143.141.289.2.437,0,.023.018.043.026.064l.069.184a.076.076,0,0,0,.018.059c.018.02.018.051.028.079a.582.582,0,0,1,.021.072l.015.043a.32.32,0,0,0,.018.066l.023.082c.013.043.023.087.033.13a.688.688,0,0,1,.018.069.689.689,0,0,0,.02.1.1.1,0,0,1,0,.041v.741h0v.049a.324.324,0,0,0,0,.051v.084h0v.087C843.57,304.9,843.726,304.991,843.724,305.047Z" transform="translate(-650.16 -229.324)"/><path class="d" d="M844.452,304.987v.406a.034.034,0,0,1,0,.015v.164l-.023.181a.931.931,0,0,1-.018.118h0v.095a.129.129,0,0,1,0,.031v.064a.512.512,0,0,1-.013.061q0,.023,0,.046a.146.146,0,0,1-.018.079h0l-.015.054-.015.064-.023.079v.023a.531.531,0,0,1-.026.079c-.023.084-.051.166-.079.256a.292.292,0,0,1-.028.079.308.308,0,0,1-.018.043,5.486,5.486,0,0,0,.156-1.367,5.653,5.653,0,0,0-2.614-4.715c-.1-.066-.2-.125-.309-.184a5.655,5.655,0,0,0-5.428,0,5.887,5.887,0,0,0-.537.335,5.625,5.625,0,0,0-.736.624,5.715,5.715,0,0,0-.69-.588h0a5.872,5.872,0,0,0-.583-.371,5.622,5.622,0,0,0-6.233.537,6.036,6.036,0,0,0-.47.422,5.563,5.563,0,0,0-.618.733c-.112.158-.217.322-.312.488h0a5.307,5.307,0,0,0-.24.483c-.041.092-.079.184-.112.276a.409.409,0,0,1,.026-.107l.015-.054V303.4l.023-.079h0c.018-.061.038-.123.059-.184s.018-.056.028-.084q.061-.181.138-.353l.031-.072.046-.1c.028-.056.054-.112.084-.166v-.013h0l.041-.074.046-.084c.018-.036.038-.072.059-.107l.031-.049.015-.028h0c0-.02.023-.041.036-.061s.031-.046.043-.069.066-.1.1-.151l.036-.054.046-.064.049-.064.061-.079.054-.069.021-.023.038-.049.064-.074.026-.031h0l.049-.054c.015-.02.036-.038.054-.059s.1-.107.153-.161l.061-.059.095-.092.064-.059.077-.066.049-.041.051-.043.1-.082.054-.041c.084-.064.171-.128.256-.189l.054-.036.051-.036.051-.031.077-.049.036-.02.056-.033c.072-.043.146-.084.22-.123l.043-.023.069-.036.056-.028.059-.028.056-.026.056-.026.059-.026.232-.095.059-.02.061-.023.056-.02.046-.015.107-.033.056-.018.043-.013.043-.013.079-.02.1-.026c.1-.028.212-.051.319-.069h.291c.1-.013.2-.026.309-.033h.856l.256.026.112.015h.238c.107.018.212.041.319.066l.128.033h.036l.056.015.107.033.046.013c.079.026.156.051.233.082l.054.018.069.028.1.041.118.051.049.023.064.028.056.028.056.028.072.036.056.031.13.069.054.033c.064.036.128.074.189.115l.051.031.054.036.054.036h0l.036.026.222.161a.4.4,0,0,0,.051.041l.1.082.049.043.051.041.074.066.064.059.094.092a.7.7,0,0,1,.064.059.447.447,0,0,1,.061-.059l.095-.092.064-.059.074-.066.051-.041.049-.043.1-.082a.405.405,0,0,0,.051-.041l.256-.189.054-.036.054-.036.051-.031.074-.049.038-.02.054-.033q.11-.066.222-.123l.043-.023.069-.036.056-.028.056-.028.059-.026.056-.026.059-.026.233-.095.059-.02.061-.023.056-.02.046-.015.107-.033.056-.018.043-.013.043-.013.077-.02.1-.026q.161-.041.322-.069h.289c.1-.013.207-.026.309-.033h.856l.255.026a.267.267,0,0,1,.11.015h.24c.1.018.212.041.317.066l.13.033h.036l.056.015.107.033.046.013c.077.026.156.051.233.082l.051.018.069.028.1.041.12.051.046.023.064.028.059.028.056.028.069.036.059.031.128.069.056.033c.064.036.125.074.189.115l.051.031.051.036.054.036h0l.033.026q.115.077.222.161l.054.041.1.082.051.043.049.041.066.059.064.059.036.033h0l.061.059.028.026.033.033.061.064.095.1c.018.02.036.038.051.059l.089.1.092.11a4.244,4.244,0,0,1,.3.4l.038.056.038.061.033.051.056.092.049.082.031.054.023.041.02.041a.429.429,0,0,1,.033.059l.031.064c.074.143.141.289.2.437,0,.023.018.043.026.064l.069.184a.076.076,0,0,0,.018.059c.018.02.018.051.028.079a.581.581,0,0,1,.02.072l.015.043a.32.32,0,0,0,.018.066l.023.082c.013.043.023.087.033.13a.69.69,0,0,1,.018.069.688.688,0,0,0,.02.1.1.1,0,0,1,0,.041v.741h0v.049a.325.325,0,0,0,0,.051v.084h0v.087C844.39,304.821,844.454,304.931,844.452,304.987Z" transform="translate(-650.888 -229.265)"/><path class="f" d="M699.348,263.555v.521a.666.666,0,0,1,0,.072.487.487,0,0,1-.023.181c-.023.059,0,.079-.018.118h0a.472.472,0,0,1,0,.059.2.2,0,0,1,0,.036v.092l-.015.061a.289.289,0,0,1,0,.046.718.718,0,0,1-.018.079h0a.414.414,0,0,0,0,.054.643.643,0,0,0-.018.066l-.023.079a.061.061,0,0,1,0,.02l-.023.082c-.026.082-.051.166-.082.256a.234.234,0,0,1-.028.077l-.015.043a5.623,5.623,0,0,1-.749,1.365l-.059.077a5.623,5.623,0,0,1-.478.547l-7.975,7.973-7.975-7.973a5.662,5.662,0,0,1-.623-.744,5.508,5.508,0,0,1-.327-.511,5.622,5.622,0,0,1-.68-3.2,2.45,2.45,0,0,1,.033-.307c.026-.181.059-.358.1-.537a.373.373,0,0,1,.028-.1.361.361,0,0,1,.013-.056.143.143,0,0,1,0-.031l.023-.082h0c.018-.061.036-.123.056-.184l.031-.084c.041-.12.087-.238.135-.355l.031-.069c.015-.036.031-.072.049-.1s.054-.112.082-.169v-.013h0l.038-.077.046-.084.061-.1a.5.5,0,0,1,.028-.051l.018-.028h0l.038-.061c.013-.023.028-.046.043-.069l.1-.151.038-.051.046-.064.049-.066.059-.079a.707.707,0,0,1,.056-.066.22.22,0,0,1,.018-.026l.041-.046.061-.074.028-.033h0l.046-.054.054-.059.153-.158.061-.061.1-.089a.692.692,0,0,1,.064-.059l.074-.066.051-.043.049-.041.1-.082.051-.041c.084-.066.174-.13.255-.189l.054-.036.054-.036.051-.033.074-.046.036-.023.056-.033c.072-.041.146-.084.22-.123l.046-.023-.005-.059.056-.028.056-.026.056-.028.059-.026.056-.026.235-.095.056-.02.061-.023.056-.018.049-.015.107-.036.054-.015.046-.013.043-.013.077-.023.1-.026.319-.069h.291c.1-.013.207-.023.309-.031h.856a2.311,2.311,0,0,1,.256.023l.11.015h.238c.107.02.215.043.319.069l.13.033h.036a.429.429,0,0,1,.054.015l.107.031.049.015.23.079.054.02.069.026.1.043.12.051.046.02.064.031.056.026.056.028.072.036.056.031.13.072.056.031.187.115.051.033.054.036.054.036h0l.036.023c.077.054.151.107.222.164a.4.4,0,0,1,.051.041c.036.026.069.054.1.082l.051.041.049.043.074.066a.692.692,0,0,1,.064.059l.1.089.061.061.061-.061.095-.089.064-.059.077-.066.049-.043.051-.041c.033-.028.066-.056.1-.082a.4.4,0,0,1,.051-.041c.084-.066.171-.13.255-.189l.054-.036.054-.036.049-.033.077-.046.036-.023.056-.033c.072-.041.146-.084.22-.123l.043-.023.069-.036.059-.028.056-.026.056-.028.059-.026.056-.026.233-.095.059-.02.061-.023.056-.018.046-.015.107-.036.056-.015.043-.013.043-.013.079-.023.1-.026c.107-.026.212-.049.319-.069h.291c.1-.013.2-.023.309-.031h.856l.256.023.11.015h.238c.107.02.212.043.319.069l.13.033h.033a.359.359,0,0,1,.056.015l.107.031.046.015.233.079.054.02.069.026.1.043.12.051.046.02.064.031.056.026.056.028.072.036.056.031.13.072.054.031.189.115.051.033.054.036.054.036h0l.036.023.222.164.051.041.1.082.049.041.051.043.064.056.066.059.036.036h0l.064.059.028.028.033.033.061.061.092.1.054.059c.031.031.059.064.087.1l.092.11a4.612,4.612,0,0,1,.3.4l.038.056.038.061a.6.6,0,0,1,.033.054,1.039,1.039,0,0,1,.056.089c.018.031.033.056.049.084l.031.051.023.041.023.041.031.061c0,.02.023.041.033.061.074.143.141.291.2.44a.479.479,0,0,1,.026.064q.038.092.069.184a.166.166,0,0,0,.02.056l.026.079.023.072a.064.064,0,0,0,.013.046c.013.015,0,.043.02.064l.023.082a.634.634,0,0,0,.033.133l.015.069.023.1v.043a.376.376,0,0,1,0,.056.258.258,0,0,1,0,.043.192.192,0,0,1,0,.038v.069a.62.62,0,0,1,0,.069.7.7,0,0,1,0,.072.162.162,0,0,0,.013.077v.314h0v.187h0v.084C699.348,263.437,699.348,263.494,699.348,263.555Z" transform="translate(-542.753 -198.414)"/><path class="d" d="M699.506,263.555v.521a.7.7,0,0,1,0,.072.486.486,0,0,1-.023.181c-.023.059,0,.079-.018.118h0a.472.472,0,0,1,0,.059.2.2,0,0,1,0,.036v.092l-.015.061a.3.3,0,0,1,0,.046.732.732,0,0,1-.018.079h0a.393.393,0,0,0,0,.054.628.628,0,0,0-.018.066l-.023.079a.062.062,0,0,1,0,.02l-.023.082c-.026.082-.051.166-.082.256a.232.232,0,0,1-.028.077l-.015.043a5.646,5.646,0,0,0-2.461-6.082c-.1-.064-.2-.125-.307-.181a5.645,5.645,0,0,0-5.43,0,5.045,5.045,0,0,0-.534.335,5.426,5.426,0,0,0-.739.621,5.751,5.751,0,0,0-.69-.588h0a5.581,5.581,0,0,0-.583-.368,5.647,5.647,0,0,0-6.7.956,5.56,5.56,0,0,0-.726.733c-.112.158-.215.322-.309.488h0c-.087.158-.169.319-.24.483-.041.089-.077.181-.112.273a.373.373,0,0,1,.028-.1.355.355,0,0,1,.013-.056.143.143,0,0,1,0-.031l.023-.082h0c.018-.061.036-.123.056-.184l.031-.084c.041-.12.087-.238.135-.355l.031-.069c.015-.036.031-.072.049-.1s.054-.112.082-.169v-.013h0l.038-.077.046-.084.061-.1a.526.526,0,0,1,.028-.051l.018-.028h0l.038-.061c.013-.023.028-.046.043-.069l.1-.151.038-.051.046-.064.049-.066.059-.079a.7.7,0,0,1,.056-.066.228.228,0,0,1,.018-.026l.041-.046.061-.074.028-.033h0l.046-.054.054-.059.153-.158.061-.061.1-.089a.705.705,0,0,1,.064-.059l.074-.066.051-.043.049-.041.1-.082.051-.041c.084-.066.174-.13.256-.189l.054-.036.054-.036.051-.033.074-.046.036-.023.056-.033c.072-.041.146-.084.22-.123l.046-.023.1-.043.056-.028.056-.026.056-.028.059-.026.056-.026.235-.095.056-.02.061-.023.056-.018.049-.015.107-.036.054-.015.046-.013.043-.013.077-.023.1-.026.319-.069h.291c.1-.013.207-.023.309-.031h.856a2.311,2.311,0,0,1,.256.023l.11.015h.238c.107.02.215.043.319.069l.13.033h.036a.425.425,0,0,1,.054.015l.107.031.049.015.23.079.054.02.069.026.1.043.12.051.046.02.064.031.056.026.056.028.072.036.056.031.13.072.056.031.187.115.051.033.054.036.054.036h0l.036.023c.077.054.151.107.222.164a.4.4,0,0,1,.051.041c.036.026.069.054.1.082l.051.041.049.043.074.066a.693.693,0,0,1,.064.059l.1.089.061.061.061-.061.095-.089.064-.059.077-.066.049-.043.051-.041c.033-.028.066-.056.1-.082a.4.4,0,0,1,.051-.041c.084-.066.171-.13.256-.189l.054-.036.054-.036.049-.033.077-.046.036-.023.056-.033c.072-.041.146-.084.22-.123l.043-.023.069-.036.059-.028.056-.026.056-.028.059-.026.056-.026.233-.095.059-.02.061-.023.056-.018.046-.015.107-.036.056-.015.043-.013.043-.013.079-.023.1-.026c.107-.026.212-.049.319-.069h.291c.1-.013.2-.023.309-.031h.856l.255.023.11.015h.238c.107.02.212.043.319.069l.13.033h.033a.359.359,0,0,1,.056.015l.107.031.046.015.233.079.054.02.069.026.1.043.12.051.046.02.064.031.056.026.056.028.072.036.056.031.13.072.054.031.189.115.051.033.054.036.054.036h0l.036.023.222.164.051.041.1.082.049.041.051.043.064.056.066.059.036.036h0l.064.059.028.028.033.033.061.061.092.1.054.059c.031.031.059.064.087.1l.092.11a4.613,4.613,0,0,1,.3.4l.038.056.038.061a.617.617,0,0,1,.033.054,1.053,1.053,0,0,1,.056.089c.018.031.033.056.049.084l.031.051.023.041.023.041.031.061c0,.02.023.041.033.061.074.143.141.291.2.44a.471.471,0,0,1,.026.064q.038.092.069.184a.166.166,0,0,0,.021.056l.026.079.023.072a.064.064,0,0,0,.013.046c.013.015,0,.043.02.064l.023.082a.634.634,0,0,0,.033.133l.015.069.023.1v.043a.36.36,0,0,1,0,.056.246.246,0,0,1,0,.043.192.192,0,0,1,0,.038v.069a.62.62,0,0,1,0,.069.666.666,0,0,1,0,.072.162.162,0,0,0,.013.077v.314h0v.187h0v.084C699.506,263.437,699.506,263.494,699.506,263.555Z" transform="translate(-542.912 -198.414)"/><path class="g" d="M404.262,285.542a.322.322,0,0,1,0,.049v.463a.732.732,0,0,1,0,.074,1.1,1.1,0,0,1-.023.181c-.01.061,0,.079-.018.118h0a.4.4,0,0,1,0,.059v.13l-.015.061a.3.3,0,0,1,0,.046.129.129,0,0,1-.018.079h0a.41.41,0,0,0-.013.054.6.6,0,0,0-.018.064l-.023.079a.074.074,0,0,1,0,.023l-.023.079c-.026.084-.051.166-.082.256a.72.72,0,0,1-.028.079l-.015.043a5.6,5.6,0,0,1-.749,1.362l-.059.079a5.6,5.6,0,0,1-.478.544l-7.975,7.975-7.975-7.975a5.687,5.687,0,0,1-.626-.741c-.118-.169-.225-.342-.325-.511a5.64,5.64,0,0,1-.68-3.207,2.5,2.5,0,0,1,.033-.307c.026-.179.059-.358.1-.534a.546.546,0,0,1,.026-.107L385.3,284a.163.163,0,0,1,0-.033.3.3,0,0,1,.02-.079h0c.018-.061.036-.123.056-.184s.02-.056.028-.084q.064-.181.138-.353l.031-.072c.015-.033.031-.069.049-.1s.054-.112.082-.166v-.013h0l.038-.074.046-.084.061-.107.028-.049.018-.028h0l.038-.061c.013-.023.028-.046.043-.069l.1-.151.038-.054.046-.064c.015-.02.031-.043.049-.064a.908.908,0,0,1,.059-.079l.056-.069.018-.023.038-.049.064-.074.028-.031h0l.046-.054.054-.059.153-.161.061-.059.1-.092.064-.059.074-.066.051-.041.049-.043.1-.082.051-.041c.084-.064.171-.128.256-.189l.054-.036.054-.036.051-.031a.739.739,0,0,1,.074-.049l.036-.02.056-.033c.072-.043.146-.084.22-.123l.046-.026.023-.036.056-.028.056-.028.056-.026.059-.026.056-.026.235-.095.056-.02.061-.023.056-.02.049-.015.107-.033.054-.018.046-.013h.043l.077-.02.1-.026c.107-.028.212-.051.319-.069h.169l.077-.013h.046c.1,0,.207-.026.309-.033h.848l.256.026.11.013.074.013h.164c.107.018.215.041.319.066l.13.033h.036l.054.015.107.033.046.013c.079.026.156.051.233.082l.054.018.069.028.1.041.12.051.046.023.064.028.056.028.056.028.072.036.056.031.13.069.054.033c.064.036.128.074.189.115l.051.031.054.036.054.036h0a.182.182,0,0,1,.036.026q.112.077.222.161l.051.041.1.082.049.043.051.041.074.066.064.059.1.092.061.059.061-.059.095-.092.064-.059.077-.066.049-.041.051-.043.1-.082.051-.041c.084-.064.171-.128.256-.189l.054-.036.054-.036.049-.031.077-.049.036-.02.056-.033c.072-.043.146-.084.22-.123a.254.254,0,0,0,.043-.026l.069-.033.056-.028.059-.028.056-.026.059-.026.056-.026.233-.095.059-.02.061-.023.056-.02.046-.015.107-.033.056-.018.043-.013h.043l.079-.02.1-.026c.1-.028.212-.051.319-.069h.166l.079-.013h.046c.1,0,.2-.026.309-.033h.856l.256.026.112.013.074.013h.164c.107.018.212.041.319.066l.128.033h.036l.056.015.107.033.046.013c.079.026.156.051.233.082l.054.018.069.028.1.041.118.051.049.023.064.028.056.028.056.028.072.036.056.031.13.069.054.033c.064.036.128.074.189.115l.051.031.054.036.054.036h0l.036.026.222.161.051.041.1.082.049.043.051.041.064.059a.7.7,0,0,1,.064.059l.038.033h0l.064.059.026.026.036.033.061.064.092.1.054.059.087.1.092.11a4.24,4.24,0,0,1,.3.4l.038.056.038.061a.349.349,0,0,1,.033.051c.02.031.038.061.056.092l.049.082.031.054.023.041.023.041.031.059c.013.02.023.043.033.064a4.791,4.791,0,0,1,.2.437l.026.064q.038.092.069.184l.02.059a.354.354,0,0,0,.026.079l.023.072a.055.055,0,0,0,.013.043l.02.066a.768.768,0,0,1,.02.082c.013.043.023.087.036.13l.015.069.023.1v.041a.432.432,0,0,1,0,.056.3.3,0,0,1,0,.046.153.153,0,0,1,0,.036v.141a.65.65,0,0,1,0,.069v.079a.732.732,0,0,1,0,.074v.161a.762.762,0,0,1,0,.079h0a.307.307,0,0,0,0,.049v.135h0v.087C404.144,285.407,404.262,285.486,404.262,285.542Z" transform="translate(-323.064 -214.8)"/><path class="d" d="M404.449,285.542a.322.322,0,0,1,0,.049v.463a.732.732,0,0,1,0,.074,1.1,1.1,0,0,1-.023.181c-.01.061,0,.079-.018.118h0a.4.4,0,0,1,0,.059v.13l-.015.061a.3.3,0,0,1,0,.046.129.129,0,0,1-.018.079h0a.41.41,0,0,0-.013.054.6.6,0,0,0-.018.064l-.023.079a.074.074,0,0,1,0,.023l-.023.079c-.026.084-.051.166-.082.256a.72.72,0,0,1-.028.079l-.015.043a5.506,5.506,0,0,0-2.558-6.069c-.1-.066-.2-.125-.307-.184a5.66,5.66,0,0,0-5.43,0,5.5,5.5,0,0,0-.534.335,5.647,5.647,0,0,0-.738.624,5.525,5.525,0,0,0-.69-.588h0a5.59,5.59,0,0,0-.583-.371,5.66,5.66,0,0,0-5.43,0,5.466,5.466,0,0,0-.8.537,5.62,5.62,0,0,0-.473.422,5.561,5.561,0,0,0-.618.733c-.112.158-.215.322-.309.488h0c-.087.158-.169.319-.24.483-.041.092-.077.184-.112.276a.546.546,0,0,1,.026-.107l.015-.054a.168.168,0,0,1,0-.033.3.3,0,0,1,.02-.079h0c.018-.061.036-.123.056-.184s.02-.056.028-.084q.064-.181.138-.353l.031-.072c.015-.033.031-.069.049-.1s.054-.112.082-.166v-.013h0l.038-.074.046-.084.061-.107.028-.049.018-.028h0l.038-.061c.013-.023.028-.046.043-.069l.1-.151.038-.054.046-.064c.015-.02.031-.043.049-.064a.908.908,0,0,1,.059-.079l.056-.069.018-.023.038-.049.064-.074.028-.031h0l.046-.054.054-.059.153-.161.061-.059.1-.092.064-.059.074-.066.051-.041.049-.043.1-.082.051-.041c.084-.064.171-.128.256-.189l.054-.036.054-.036.051-.031a.742.742,0,0,1,.074-.049l.036-.02.056-.033c.072-.043.146-.084.22-.123l.046-.026.115-.036.056-.028.056-.028.056-.026.059-.026.056-.026.235-.095.056-.02.061-.023.056-.02.049-.015.107-.033.054-.018.046-.013h.043l.077-.02.1-.026c.107-.028.212-.051.319-.069h.169l.077-.013h.046c.1,0,.207-.026.309-.033h.848l.256.026.11.013.074.013h.164c.107.018.215.041.319.066l.13.033h.036l.054.015.107.033.046.013c.079.026.156.051.233.082l.054.018.069.028.1.041.12.051.046.023.064.028.056.028.056.028.072.036.056.031.13.069.054.033c.064.036.128.074.189.115l.051.031.054.036.054.036h0a.182.182,0,0,1,.036.026q.112.077.222.161l.051.041.1.082.049.043.051.041.074.066.064.059.1.092.061.059.061-.059.095-.092.064-.059.077-.066.049-.041.051-.043.1-.082.051-.041c.084-.064.171-.128.256-.189l.054-.036.054-.036.049-.031.077-.049.036-.02.056-.033c.072-.043.146-.084.22-.123a.254.254,0,0,0,.043-.026l.069-.033.056-.028.059-.028.056-.026.059-.026.056-.026.233-.095.059-.02.061-.023.056-.02.046-.015.107-.033.056-.018.043-.013h.043l.079-.02.1-.026c.1-.028.212-.051.319-.069h.166l.079-.013h.046c.1,0,.2-.026.309-.033h.856l.256.026.112.013.074.013h.164c.107.018.212.041.319.066l.128.033h.036l.056.015.107.033.046.013c.079.026.156.051.233.082l.054.018.069.028.1.041.118.051.049.023.064.028.056.028.056.028.072.036.056.031.13.069.054.033c.064.036.128.074.189.115l.051.031.054.036.054.036h0l.036.026.222.161.051.041.1.082.049.043.051.041.064.059a.7.7,0,0,1,.064.059l.038.033h0l.064.059.026.026.036.033.061.064.092.1.054.059.087.1.092.11a4.24,4.24,0,0,1,.3.4l.038.056.038.061a.349.349,0,0,1,.033.051c.02.031.038.061.056.092l.049.082.031.054.023.041.023.041.031.059c.013.02.023.043.033.064a4.791,4.791,0,0,1,.2.437l.026.064q.038.092.069.184l.02.059a.354.354,0,0,0,.026.079l.023.072a.055.055,0,0,0,.013.043l.02.066a.768.768,0,0,1,.02.082c.013.043.023.087.036.13l.015.069.023.1v.041a.432.432,0,0,1,0,.056.3.3,0,0,1,0,.046.153.153,0,0,1,0,.036v.141a.65.65,0,0,1,0,.069v.079a.732.732,0,0,1,0,.074v.161a.762.762,0,0,1,0,.079h0a.307.307,0,0,0,0,.049v.135h0v.087C404.331,285.407,404.449,285.486,404.449,285.542Z" transform="translate(-323.251 -214.8)"/><path class="h" d="M394.581,444.812v.089a.344.344,0,0,1,0,.051c0,.038,0,.079,0,.12v.153a.033.033,0,0,1,0,.015v.164l-.023.181a.27.27,0,0,1-.018.118h0v.092a.129.129,0,0,1,0,.031.469.469,0,0,1-.013.064.512.512,0,0,1-.013.061V446a.145.145,0,0,1-.018.079h0l-.015.054-.015.066-.023.079v.02a.644.644,0,0,1-.026.082c-.023.082-.051.166-.079.256l-.028.077a.223.223,0,0,1-.018.043,5.519,5.519,0,0,1-.746,1.365l-.059.077a5.614,5.614,0,0,1-.48.544l-7.973,7.975-7.975-7.975a5.7,5.7,0,0,1-.626-.741,5.84,5.84,0,0,1-.325-.511,5.622,5.622,0,0,1-.68-3.207,2.011,2.011,0,0,1,.033-.3c.026-.181.059-.358.1-.537a.41.41,0,0,1,.026-.107l.015-.054v-.031l.023-.082h0c.02-.061.038-.123.059-.184l.028-.084c.043-.12.087-.238.138-.355l-.038-.072.046-.1c.028-.056.054-.112.084-.169v-.013h0l.041-.074.046-.084c.018-.036.038-.072.059-.1l.031-.051.015-.028h0c0-.02.023-.041.036-.061s.031-.046.043-.069l.1-.151c.013-.018.023-.036.036-.051l.046-.064.049-.066.061-.079.054-.069.02-.023.038-.049.064-.074.028-.031h0l.049-.054.074-.064c.049-.054.1-.107.153-.158l.061-.061.095-.092.064-.056.077-.066.049-.043.051-.041c.033-.028.066-.056.1-.082a.4.4,0,0,1,.051-.041c.084-.066.171-.13.256-.189l.054-.036a.387.387,0,0,1,.054-.036l.049-.033.077-.046.036-.023.056-.033c.072-.043.146-.084.22-.123l.043-.023.069-.036.056-.028.059-.026.056-.028.056-.026.059-.026.233-.095.059-.02.061-.023.056-.018.046-.015.107-.036.056-.018.043-.013h.043l.079-.023.1-.026c.1-.026.212-.049.319-.069h.291c.1-.013.2-.023.309-.031h.848l.256.023.112.015H382c.107.018.212.041.319.066l.128.036h.036l.056.018.107.031.046.015c.079.023.156.051.233.079l.054.02.069.026.1.043.118.051.049.02.064.031.056.026.056.028.072.036.056.031.13.072.054.031c.064.038.128.074.189.115l.051.033.054.036.054.036h0l.036.023.222.164.051.041.1.082.049.041.051.043.074.066.064.056.095.092.064.061.061-.061.095-.092.064-.056.074-.066.051-.043.049-.041.1-.082.051-.041c.087-.066.174-.13.256-.189l.054-.036.054-.036.051-.033.074-.046.038-.023.054-.033.222-.123.043-.023.069-.036.056-.028.056-.026.059-.028.056-.026.059-.026.233-.095.059-.02.061-.023.056-.018.046-.015.107-.036.056-.018.043-.013h.043l.077-.023.1-.026c.1-.026.212-.049.319-.069h.289l.309-.031h.848a2.265,2.265,0,0,1,.256.023l.11.015h.24c.107.018.212.041.317.066l.13.036h.036l.056.018.107.031.046.015c.077.023.156.051.233.079l.051.02.069.026.1.043.12.051.046.02.064.031.059.026.056.028.072.036.056.031c.043.023.087.046.128.072l.056.031.189.115.051.033.054.036.051.036h0l.033.023c.077.054.151.107.222.164l.054.041.1.082.051.041.049.043.066.056.064.059.036.036h0l.061.059.028.028.033.033.061.061.095.1.054.056.087.1.092.11a4.614,4.614,0,0,1,.3.4l.038.056.038.061.033.054.056.089.049.084.031.051.023.041c0,.013.013.028.02.041s.023.041.033.061.02.041.033.061c.072.143.138.291.2.44,0,.02.018.041.026.064l.069.184.018.056a.247.247,0,0,0,.028.079.436.436,0,0,1,.02.072l.015.046.018.064.023.082c.013.043.023.087.033.133a.687.687,0,0,1,.018.069.734.734,0,0,0,.02.1v.782h0v.051a.362.362,0,0,0,0,.051q0,.042,0,.084h0v.087C394.443,444.684,394.583,444.755,394.581,444.812Z" transform="translate(-315.849 -333.377)"/><path class="d" d="M394.859,444.812v.089a.344.344,0,0,1,0,.051c0,.038,0,.079,0,.12v.153a.033.033,0,0,1,0,.015v.164l-.023.181a.27.27,0,0,1-.018.118h0v.092a.129.129,0,0,1,0,.031.469.469,0,0,1-.013.064.512.512,0,0,1-.013.061V446a.145.145,0,0,1-.018.079h0l-.015.054-.015.066-.023.079v.02a.644.644,0,0,1-.026.082c-.023.082-.051.166-.079.256l-.028.077a.223.223,0,0,1-.018.043,5.476,5.476,0,0,0,.156-1.367,5.545,5.545,0,0,0-.192-1.418,5.665,5.665,0,0,0-2.422-3.3c-.1-.064-.2-.125-.309-.181a5.64,5.64,0,0,0-5.428,0,5.361,5.361,0,0,0-.537.335,5.416,5.416,0,0,0-.8.624,5.714,5.714,0,0,0-.69-.588h0a5.857,5.857,0,0,0-.583-.368,5.645,5.645,0,0,0-6.233.534,6.03,6.03,0,0,0-.47.422,5.563,5.563,0,0,0-.618.733,5.217,5.217,0,0,0-.309.488h0a5.307,5.307,0,0,0-.24.483c-.041.089-.079.181-.112.273a.41.41,0,0,1,.026-.107l.015-.054v-.031l.023-.082h0c.02-.061.038-.123.059-.184l.028-.084c.043-.12.087-.238.138-.355l.023-.059.046-.1.084-.169v-.013h0l.041-.074.046-.084c.018-.036.038-.072.059-.1l.031-.051.015-.028h0c0-.02.023-.041.036-.061s.031-.046.043-.069l.1-.151c.013-.018.023-.036.036-.051l.046-.064.049-.066.061-.079.054-.069.02-.023.038-.049.064-.074.028-.031h0l.049-.054.074-.064c.049-.054.1-.107.153-.158l.061-.061.095-.092.064-.056.077-.066.049-.043.051-.041c.033-.028.066-.056.1-.082a.4.4,0,0,1,.051-.041c.084-.066.171-.13.256-.189l.054-.036a.387.387,0,0,1,.054-.036l.049-.033.077-.046.036-.023.056-.033c.072-.043.146-.084.22-.123l.043-.023.069-.036.056-.028.059-.026.056-.028.056-.026.059-.026.233-.095.059-.02.061-.023.056-.018.046-.015.107-.036.056-.018.043-.013h.043l.079-.023.1-.026c.1-.026.212-.049.319-.069h.291c.1-.013.2-.023.309-.031h.848l.256.023.112.015h.238c.107.018.212.041.319.066l.128.036h.036l.056.018.107.031.046.015c.079.023.156.051.233.079l.054.02.069.026.1.043.118.051.049.02.064.031.056.026.056.028.072.036.056.031.13.072.054.031c.064.038.128.074.189.115l.051.033.054.036.054.036h0l.036.023.222.164.051.041.1.082.049.041.051.043.074.066.064.056.095.092.064.061.061-.061.095-.092.064-.056.074-.066.051-.043.049-.041.1-.082.051-.041c.087-.066.174-.13.256-.189l.054-.036.054-.036.051-.033.074-.046.038-.023.054-.033.222-.123.043-.023.069-.036.056-.028.056-.026.059-.028.056-.026.059-.026.233-.095.059-.02.061-.023.056-.018.046-.015.107-.036.056-.018.043-.013h.043l.077-.023.1-.026c.1-.026.212-.049.319-.069h.289l.309-.031h.848a2.265,2.265,0,0,1,.256.023l.11.015h.24c.107.018.212.041.317.066l.13.036h.036l.056.018.107.031.046.015c.077.023.156.051.233.079l.051.02.069.026.1.043.12.051.046.02.064.031.059.026.056.028.072.036.056.031c.043.023.087.046.128.072l.056.031.189.115.051.033.054.036.051.036h0l.033.023c.077.054.151.107.222.164l.054.041.1.082.051.041.049.043.066.056.064.059.036.036h0l.061.059.028.028.033.033.061.061.095.1.054.056.087.1.092.11a4.614,4.614,0,0,1,.3.4l.038.056.038.061.033.054.056.089.049.084.031.051.023.041c0,.013.013.028.02.041s.023.041.033.061.02.041.033.061c.072.143.138.291.2.44,0,.02.018.041.026.064l.069.184.018.056a.247.247,0,0,0,.028.079.436.436,0,0,1,.02.072l.015.046.018.064.023.082c.013.043.023.087.033.133a.687.687,0,0,1,.018.069.734.734,0,0,0,.02.1v.782h0v.051a.362.362,0,0,0,0,.051q0,.042,0,.084h0v.087C394.721,444.684,394.861,444.755,394.859,444.812Z" transform="translate(-316.127 -333.377)"/><path class="i" d="M494.192,347.358v.064a.147.147,0,0,1,0,.033v.268a.386.386,0,0,1,0,.051l-.015.128-.015.082h0v.041a.092.092,0,0,1,0,.026v.141a.558.558,0,0,0,0,.056h0v.036a.07.07,0,0,1-.013.049l-.015.056v.013l-.015.059c-.018.059-.038.118-.059.174s0,.038-.018.056l-.013.031a4.031,4.031,0,0,1-.526.963l-.043.054a3.685,3.685,0,0,1-.337.386l-5.635,5.635-5.635-5.635a4,4,0,0,1-1.152-3.156,1.614,1.614,0,0,1,.026-.217,3.747,3.747,0,0,1,.072-.376.414.414,0,0,1,.018-.077.212.212,0,0,0,0-.038v-.023l.015-.056h0c.013-.046.028-.089.041-.13l.02-.061c.031-.084.061-.166.1-.256l.023-.049c0-.026.02-.049.033-.074l.056-.118h0a.54.54,0,0,0,.028-.054l.033-.059a.7.7,0,0,1,.043-.074.164.164,0,0,1,.02-.036v-.02h0l.028-.041.031-.049.072-.107.026-.038.031-.043.036-.049.043-.054a.356.356,0,0,1,.038-.049l.013-.018.028-.033c.015-.018.028-.036.043-.051l.02-.023h0l.033-.036.038-.043.107-.112.043-.043.069-.064a.33.33,0,0,0,.043-.041l.054-.046.036-.031.036-.028.072-.059.036-.028.184-.135.038-.026.038-.023.036-.023.051-.033.028-.015.038-.023c.051-.031.1-.061.156-.087l.031-.018.049-.026.041-.018.041-.02.038-.018.041-.018.041-.018.166-.066.041-.015.043-.015.038-.015h.033l.077-.026h.1l.056-.015.072-.018c.077-.02.151-.036.227-.049h.2c.072,0,.146-.018.217-.023h.606l.174.018h.248c.074.013.151.028.225.046l.092.026h.064l.077.02h.031l.166.056.036.015.049.018.074.031.084.036.033.015.046.02.041.02.038.018.051.026.038.023.092.049.038.023.135.082.036.023.036.023.038.026h0l.026.018c.054.036.1.074.156.115l.036.028.074.059.033.028.036.031.054.046.046.041a.787.787,0,0,0,.066.064l.043.043.043-.043a.782.782,0,0,0,.066-.064l.046-.041.054-.046.036-.031.033-.028.074-.059.036-.028c.059-.046.12-.092.184-.135l.038-.026.036-.023.036-.023.054-.033.026-.015.038-.023c.054-.031.1-.061.158-.087l.031-.018.049-.026.038-.018.041-.02.041-.018.041-.018.041-.018.164-.066.041-.015.043-.015.041-.015h.033l.074-.026h.1l.054-.015.074-.018c.074-.02.151-.036.225-.049h.207c.072,0,.143-.018.217-.023h.606l.174.018h.248l.222.046.092.026h.066l.074.02h.033l.164.056.038.015.049.018.074.031.084.036.033.015.043.02.041.02.041.018.049.026.041.023.092.049.038.023c.046.026.089.054.133.082l.036.023.038.023.038.026h0l.023.018c.054.036.107.074.158.115l.036.028a.791.791,0,0,1,.072.059l.036.028.036.031.046.041.046.041.026.026h0l.043.043.018.018.026.023.043.046.066.069.036.041.061.069.066.079c.074.089.143.184.21.281l.026.038c0,.015.018.031.028.043l.023.038c.013.02.028.041.041.064l.033.059a.253.253,0,0,1,.02.036l.018.028.015.031.023.043.023.043c.051.1.1.2.141.309l.018.046c.018.043.033.084.049.13a.227.227,0,0,1,.013.038.063.063,0,0,0,.02.056l.015.051a.241.241,0,0,0,0,.033.064.064,0,0,0,.013.046l.015.056a.413.413,0,0,0,.026.092c.008.031,0,.033,0,.051l.015.069v.069a.126.126,0,0,0,0,.031v.23a.389.389,0,0,1,0,.054v.028a.376.376,0,0,0,0,.056.1.1,0,0,0,0,.028v.056h0a.184.184,0,0,1,0,.036.167.167,0,0,1,0,.036.5.5,0,0,1,0,.061h0a.5.5,0,0,1,0,.061Z" transform="translate(-394.224 -262.073)"/><path class="d" d="M494.59,347.313v.064a.144.144,0,0,1,0,.033v.268a.376.376,0,0,1,0,.051l-.015.128-.015.082h0v.041a.094.094,0,0,1,0,.026v.141q0,.028,0,.056h0v.036a.07.07,0,0,1-.013.049l-.015.056v.013l-.015.059c-.018.059-.038.118-.059.174s0,.038-.018.056l-.013.031a3.975,3.975,0,0,0,.11-.966,4.061,4.061,0,0,0-.135-1,4,4,0,0,0-1.022-1.789,4.053,4.053,0,0,0-.682-.547c-.072-.043-.143-.087-.217-.128a3.994,3.994,0,0,0-3.833,0,4.436,4.436,0,0,0-.378.235,4.2,4.2,0,0,0-.511.44,4.088,4.088,0,0,0-.486-.414h0a3.513,3.513,0,0,0-.414-.256,3.994,3.994,0,0,0-3.833,0,3.886,3.886,0,0,0-.565.378,4.047,4.047,0,0,0-.332.3,4.18,4.18,0,0,0-.44.511c-.079.112-.151.227-.217.345h0a3.586,3.586,0,0,0-.171.342c-.028.064-.054.128-.079.194a.416.416,0,0,1,.018-.077.212.212,0,0,0,0-.038v-.023l.015-.056h0c.013-.046.028-.089.041-.13l.02-.061c.031-.084.061-.166.1-.256l.023-.049c0-.026.02-.049.033-.074l.056-.118h0a.543.543,0,0,0,.028-.054l.033-.059a.7.7,0,0,1,.043-.074.163.163,0,0,1,.02-.036v-.02h0l.028-.041.031-.049.072-.107.026-.038.031-.043.036-.049.043-.054a.356.356,0,0,1,.038-.049l.013-.018.028-.033c.015-.018.028-.036.043-.051l.02-.023h0l.033-.036.038-.043.107-.112.043-.043.069-.064a.328.328,0,0,0,.043-.041l.054-.046.036-.031.036-.028.072-.059.036-.028.184-.135.038-.026.038-.023.036-.023.051-.033.028-.015.038-.023c.051-.031.1-.061.156-.087l.031-.018.049-.026.041-.018.041-.02.038-.018.041-.018.041-.018.166-.066.041-.015.043-.015.038-.015h.033l.077-.026h.1l.056-.015.072-.018c.077-.02.151-.036.227-.049h.2c.072,0,.146-.018.217-.023h.606l.174.018h.248c.074.013.151.028.225.046l.092.026h.064l.077.02h.031l.166.056.036.015.049.018.074.031.084.036.033.015.046.02.041.02.038.018.051.026.038.023.092.049.038.023.135.082.036.023.036.023.038.026h0l.026.018c.054.036.1.074.156.115l.036.028.074.059.033.028.036.031.054.046.046.041a.787.787,0,0,0,.066.064l.043.043.043-.043a.786.786,0,0,0,.066-.064l.046-.041.054-.046.036-.031.033-.028.074-.059.036-.028c.059-.046.12-.092.184-.135l.038-.026.036-.023.036-.023.054-.033.026-.015.038-.023c.054-.031.1-.061.158-.087l.031-.018.049-.026.038-.018.041-.02.041-.018.041-.018.041-.018.164-.066.041-.015.043-.015.041-.015h.033l.074-.026h.1l.054-.015.074-.018c.074-.02.151-.036.225-.049h.207c.072,0,.143-.018.217-.023h.606l.174.018h.248l.222.046.092.026h.066l.074.02h.033l.164.056.038.015.049.018.074.031.084.036.033.015.043.02.041.02.041.018.049.026.041.023.092.049.038.023c.046.026.089.054.133.082l.036.023.038.023.038.026h0l.023.018c.054.036.107.074.158.115l.036.028a.785.785,0,0,1,.072.059l.036.028.036.031.046.041.046.041.026.026h0l.043.043.018.018.026.023.043.046.066.069.036.041.061.069.066.079c.074.089.143.184.21.281l.026.038c0,.015.018.031.028.043l.023.038c.013.02.028.041.041.064l.033.059a.259.259,0,0,1,.02.036l.018.028.015.031.023.043.023.043c.051.1.1.2.141.309l.018.046c.018.043.033.084.049.13a.222.222,0,0,1,.013.038.063.063,0,0,0,.02.056l.015.051a.236.236,0,0,0,0,.033.064.064,0,0,0,.013.046l.015.056a.413.413,0,0,0,.026.092c.008.031,0,.033,0,.051l.015.069v.069a.129.129,0,0,0,0,.031v.23a.384.384,0,0,1,0,.054v.028a.376.376,0,0,0,0,.056.1.1,0,0,0,0,.028c0,.018,0,.036,0,.056h0a.184.184,0,0,1,0,.036.169.169,0,0,1,0,.036.5.5,0,0,1,0,.061h0a.49.49,0,0,1,0,.061Z" transform="translate(-394.623 -262.028)"/><path class="h" d="M730.292,431.771v.064a.184.184,0,0,1,0,.036v.1a.634.634,0,0,0,0,.069v.1a.348.348,0,0,1,0,.051l-.015.128v.084h0v.041a.075.075,0,0,1,0,.026v.023a.333.333,0,0,1,0,.043v.133h0a.217.217,0,0,0,0,.038q0,.023,0,.046l-.015.056v.015a.466.466,0,0,0-.018.056c-.018.059-.036.118-.056.176a.469.469,0,0,0-.02.054l-.013.031a3.983,3.983,0,0,1-.526.963l-.041.054a4.032,4.032,0,0,1-.34.386l-5.635,5.635-5.622-5.635a3.7,3.7,0,0,1-.442-.524,3.651,3.651,0,0,1-.23-.365,3.989,3.989,0,0,1-.48-2.267,1.019,1.019,0,0,1,.023-.215,3.772,3.772,0,0,1,.072-.378.11.11,0,0,1,.02-.077.212.212,0,0,1,0-.038.075.075,0,0,1,0-.023l.015-.056h0a.513.513,0,0,1,.041-.13.582.582,0,0,0,.02-.061c.031-.084.064-.166.1-.256l.023-.051a.209.209,0,0,1,.033-.074c.013-.026.038-.079.059-.118h0l.026-.054.033-.059c.015-.026.028-.051.043-.074a.253.253,0,0,1,.02-.036v-.02h0c0-.015.018-.031.028-.043l.031-.049.072-.107.026-.036.033-.046.033-.046.043-.056.038-.049v-.018l.028-.033.043-.051.02-.023h0l.033-.038.038-.041c.036-.038.072-.077.11-.112a.35.35,0,0,1,.043-.043.781.781,0,0,1,.066-.064l.046-.041a.46.46,0,0,1,.051-.049l.036-.031.036-.028.072-.059.036-.028c.061-.046.123-.092.184-.133l.038-.026.038-.026.036-.023.054-.033.026-.015.038-.023.156-.087.031-.018.049-.023.041-.02.041-.018.041-.02.038-.018.041-.018.166-.066.041-.015.043-.015.038-.013.033-.013.077-.023h.1l.056-.015.072-.018c.077-.018.151-.036.227-.049h.2l.22-.023h.6l.176.018h.245a2.2,2.2,0,0,1,.225.049l.092.023h.064l.077.023h.033l.164.056h.036l.049.018.074.031.084.036.033.015.046.023.041.018.038.02.051.026.041.02.089.051.041.02.133.082.036.023.038.026.036.026h0l.026.018.156.115.038.028.072.059.036.028.033.031.054.049.046.041.066.064a.356.356,0,0,1,.043.043c.015-.015.028-.031.043-.043l.069-.064a.332.332,0,0,1,.043-.041l.054-.049.036-.031.036-.028.072-.059.036-.028c.061-.046.123-.092.184-.133l.038-.026.038-.026.036-.023.051-.033.028-.015.038-.023.156-.087.031-.018.049-.023.041-.02.038-.018.041-.02.041-.018.041-.018.164-.066.041-.015.043-.015.041-.013.033-.013.077-.023h.1l.056-.015.072-.018c.074-.018.151-.036.225-.049h.207l.217-.023h.606l.174.018h.248c.074.013.151.028.225.049l.092.023h.064l.074.023h.033l.164.056h.038l.049.018.074.031.084.036.033.015.046.023.038.018.041.02.051.026.038.02.092.051.038.02c.046.026.089.054.133.082l.036.023.038.026.038.026h0l.026.018.156.115.036.028.072.059.036.028.036.031.046.041.046.041a.243.243,0,0,0,.026.026h0c0,.015.028.028.043.043l.02.018.023.026.043.043.066.069.036.041a.819.819,0,0,1,.061.072l.066.077c.074.092.143.184.21.281,0,.013.018.026.026.041l.028.041.023.038c.015.02.028.043.041.064l.033.059.023.036.015.031.015.028.023.043.023.043c.051.1.1.2.141.309a.337.337,0,0,1,.018.046c.018.043.033.087.049.13l.015.041a.429.429,0,0,0,.018.054l.015.051v.079l.015.056a.432.432,0,0,0,.026.095c.008.031,0,.031,0,.049l.015.069v.552h0a.144.144,0,0,0,0,.033v.036a.489.489,0,0,1,0,.061h0a.489.489,0,0,1,0,.061Z" transform="translate(-570.019 -324.898)"/><path class="d" d="M730.64,431.786v.064a.184.184,0,0,1,0,.036v.1a.634.634,0,0,0,0,.069v.1a.349.349,0,0,1,0,.051l-.015.128v.084h0v.041a.075.075,0,0,1,0,.026v.023a.333.333,0,0,1,0,.043v.133h0a.217.217,0,0,0,0,.038q0,.023,0,.046l-.015.056v.015a.465.465,0,0,0-.018.056c-.018.059-.036.118-.056.176a.469.469,0,0,0-.02.054l-.013.031a3.977,3.977,0,0,0-1.738-4.288c-.072-.046-.143-.089-.217-.13a3.994,3.994,0,0,0-3.833,0,3.907,3.907,0,0,0-.378.238,3.993,3.993,0,0,0-.511.44,3.91,3.91,0,0,0-.486-.417h0a4.64,4.64,0,0,0-.411-.256,4,4,0,0,0-3.833,0,4.1,4.1,0,0,0-.565.378,3.655,3.655,0,0,0-.332.3,3.78,3.78,0,0,0-.437.511,3.319,3.319,0,0,0-.22.348h0c-.064.112-.12.227-.171.342-.028.064-.054.128-.079.194a.11.11,0,0,1,.02-.077.223.223,0,0,1,0-.038.076.076,0,0,1,0-.023l.015-.056h0a.51.51,0,0,1,.041-.13.57.57,0,0,0,.02-.061c.031-.084.064-.166.1-.256l.023-.051a.208.208,0,0,1,.033-.074c.013-.026.038-.079.059-.118h0l.026-.054.033-.059c.015-.026.028-.051.043-.074a.259.259,0,0,1,.02-.036v-.02h0c0-.015.018-.031.028-.043l.031-.049.072-.107.026-.036.033-.046.033-.046.043-.056.038-.049v-.018l.028-.033.043-.051.02-.023h0l.033-.038.038-.041c.036-.038.072-.077.11-.112a.35.35,0,0,1,.043-.043.778.778,0,0,1,.066-.064l.046-.041a.463.463,0,0,1,.051-.049l.036-.031.036-.028.072-.059.036-.028c.061-.046.123-.092.184-.133l.038-.026.038-.026.036-.023.054-.033.026-.015.038-.023.156-.087.031-.018.049-.023.041-.02.041-.018.041-.02.038-.018.041-.018.166-.066.041-.015.043-.015.038-.013.033-.013.077-.023h.1l.056-.015.072-.018c.077-.018.151-.036.227-.049h.2l.22-.023h.6l.176.018h.245a2.191,2.191,0,0,1,.225.049l.092.023h.064l.077.023h.033l.164.056h.036l.049.018.074.031.084.036.033.015.046.023.041.018.038.02.051.026.041.02.089.051.041.02.133.082.036.023.038.026.036.026h0l.026.018.156.115.038.028.072.059.036.028.033.031.054.049.046.041.066.064a.35.35,0,0,1,.043.043c.015-.015.028-.031.043-.043l.069-.064a.328.328,0,0,1,.043-.041l.054-.049.036-.031.036-.028.072-.059.036-.028c.061-.046.123-.092.184-.133l.038-.026.038-.026.036-.023.051-.033.028-.015.038-.023.156-.087.031-.018.049-.023.041-.02.038-.018.041-.02.041-.018.041-.018.164-.066.041-.015.043-.015.041-.013.033-.013.077-.023h.1l.056-.015.072-.018c.074-.018.151-.036.225-.049h.207l.217-.023h.606l.174.018h.248c.074.013.151.028.225.049l.092.023h.064l.074.023h.033l.164.056h.038l.049.018.074.031.084.036.033.015.046.023.038.018.041.02.051.026.038.02.092.051.038.02c.046.026.089.054.133.082l.036.023.038.026.038.026h0l.026.018.156.115.036.028.072.059.036.028.036.031.046.041.046.041a.243.243,0,0,0,.026.026h0c0,.015.028.028.043.043l.021.018.023.026.043.043.066.069.036.041a.82.82,0,0,1,.061.072l.066.077c.074.092.143.184.21.281,0,.013.018.026.026.041l.028.041.023.038c.015.02.028.043.041.064l.033.059.023.036.015.031.015.028.023.043.023.043c.051.1.1.2.141.309a.343.343,0,0,1,.018.046c.018.043.033.087.049.13l.015.041a.45.45,0,0,0,.018.054l.015.051v.079l.015.056a.435.435,0,0,0,.026.095c.008.031,0,.031,0,.049l.015.069v.552h0a.151.151,0,0,0,0,.033v.036a.489.489,0,0,1,0,.061h0a.489.489,0,0,1,0,.061Z" transform="translate(-570.367 -324.913)"/><path class="j" d="M545.165,265.18h0a29.387,29.387,0,0,0-2.6-2.338c.11-1.37.365-4.648.388-5.279.026-.8-1.152-1.822-3.672-2.765s-1.789,3.455-1.753,3.851a2.965,2.965,0,0,0,1.533,1.988c.34.141.432.317.409.483l-.079-.013a9.855,9.855,0,0,1-3.008-.736,15.882,15.882,0,0,0-.767,3.4v.174a1.314,1.314,0,0,0,.061.593h.176a1.924,1.924,0,0,1-.141.874h0a6.756,6.756,0,0,1-.256.629,17.564,17.564,0,0,1-.12-1.894,15.981,15.981,0,0,0-.935-3.1,4.346,4.346,0,0,1-1.26-1.145,5.028,5.028,0,0,0-2.113-1.595c-.58-.2-2.683-2.941-3.549-3.578-.69-.511-.969-.21-1.053-.066l-.051.036a3.028,3.028,0,0,1-.687-1.467c0-.279.028-.851.079-1.577a6.645,6.645,0,0,1,.838.767c.588.652,1.022,1.428,1.664,2.029a2.708,2.708,0,0,0,1.835.8,1.694,1.694,0,0,0,.664-.1c.854-.33,1.4-1.37,2.3-1.411.705.036,1.224.687,1.8,1.117a2.415,2.415,0,0,0,1.485.511,1.692,1.692,0,0,0,.626-.1,1.341,1.341,0,0,0,.815-1.707c-.47-.992-2.07-.767-2.752-1.63a.675.675,0,0,1-.158-.634.442.442,0,0,1,.414-.3,1.441,1.441,0,0,1,.856.409c.332.337.767.767,1.178.721a.56.56,0,0,0,.335-.064c.013-.3.028-.608.041-.912a3.182,3.182,0,0,0,1.421.4,1.664,1.664,0,0,0,.276-.013,1.112,1.112,0,0,0,.992-1.094,1.239,1.239,0,0,0,.851.284,1.16,1.16,0,0,0,.409-.051,1.237,1.237,0,0,0,.828-1.063,2.426,2.426,0,0,0-.646-1.533l-1.671-2.285a.925.925,0,0,1-.255-.659,1.372,1.372,0,0,1,.286-.511,1.783,1.783,0,0,0-.348-2.2,3.1,3.1,0,0,0-2.228-.739,2.924,2.924,0,0,1-1.766-.23,2.012,2.012,0,0,1-.69-1.2c-.355-1.344-.376-2.755-.624-4.122a5.656,5.656,0,0,0-1.891-3.606,1.751,1.751,0,0,0-.876-.383,6.222,6.222,0,0,0-.813.066,2.969,2.969,0,0,1-2.32-1.3,20.686,20.686,0,0,0-1.689-2.19,4.123,4.123,0,0,0-3.92-.907c-.6.166-1.073.652-1.692.677a20.228,20.228,0,0,1-2.8-.256,7.723,7.723,0,0,0-2.555.056,2.719,2.719,0,0,0-1.789,1.326l-.217-1.842a32.157,32.157,0,0,0-.652-3.759.937.937,0,0,1,.026-.82l.041.038c.031-.092.064-.187.1-.281a.67.67,0,0,0,0-.215,39.265,39.265,0,0,0-1.188-5.139h-1.14a.913.913,0,0,0-.028-.164,30.849,30.849,0,0,0-1.278-5.31,3.167,3.167,0,0,1-.23-1.717,13.769,13.769,0,0,0,.054-2.026,5.544,5.544,0,0,1,.046-.976,1.37,1.37,0,0,0-.544-1.278c-1.495-1.109-5.129-3.634-7.255-3.7-2.724-.082.853,4.7.813,5.149s2.724.859,2.724.859.164,1.388.327,2.164c.112.539.3,4.538.409,6.938a7.62,7.62,0,0,1-1.832-.687s-3.171-.856-3.457,0,3.864,4.986,3.864,4.986,1.464,3.882,1.022,5.111-.123,7.027-.123,7.027.041,6.9.345,8.663a3.4,3.4,0,0,1-.549,2.737s-.365,4.331,0,4.74a12.659,12.659,0,0,1,1,1.607l.107.194c-1.2,1.467-2.394,2.87-3.02,3.066-1.219.368-9.552,3.833-9.552,3.833s-2.721,2.6-3.133,2.6,2.479,2.78,2.479,2.78,2.6,2.083,2.888,2.41,7.411,4.209,7.411,4.209,1.221.368,1.342.736,1.748,1.388,1.748,1.388a10.617,10.617,0,0,1,1.574,2.361.55.55,0,0,0,.018.176c.015.256.033.373.049.312.217.6,1.681,2.124.976,3.212-.327.511,0,1.428.631,2.17a7.793,7.793,0,0,1-.664,2.3c-.488.654-.271,1.579-.767,1.689s-.652,2.507-.652,2.507l-.422,5.282s-.11,1.089-.705,1.362,0,1.743,0,1.743-.639,1.252-.256,1.96-.767,3.979-.767,3.979-.488,6.32,0,7.191a7.155,7.155,0,0,1,.767,2.778c0,.544.271,10.733.271,10.733s-.652,4.14-.869,4.9.6,2.453.056,3.322a6.449,6.449,0,0,0-.434,2.831s-.813,7.682-.325,10.515-.156,3.432-.156,3.432a5.806,5.806,0,0,0,1.053.465c.013.107.026.222.038.34.256,2.377.631,6.47.289,7.411a14.939,14.939,0,0,0-.473,3.721v.166h0l-.948,1.533a4.905,4.905,0,0,1-.434,1.569c-.245.217-2.282,3.915-2.555,4.39l-.028.051s-2.06,3.787,3.036,3.894,4.444-2.5,4.444-2.5.015-.511.064-1.137a5.488,5.488,0,0,1,.371-1.942,27.284,27.284,0,0,0,1.382-2.479v-3h-.327a.526.526,0,0,1,.018-.164,11.314,11.314,0,0,1,.284-1.853,11.475,11.475,0,0,0-.353-2.67,60.114,60.114,0,0,1,.616-7.186c.023-.123.046-.243.069-.358a8.7,8.7,0,0,0,1.1-.572s0-5.555.652-6.537.514-3.759.514-3.759.161-2.451.649-2.941.373-2.67.373-2.67.432-1.416.92-2.555a22.132,22.132,0,0,0,.767-4.357,5.528,5.528,0,0,1,.767-1.582c.544-.767,0-2.451,0-2.451a2.984,2.984,0,0,1-.215-2.18c.381-1.091,2.491-9.915,2.491-9.915l.815-3.158,1.191,4.03a27.687,27.687,0,0,0,0,3.705,11.566,11.566,0,0,0,1.3,2.555v8.553s.11,5.775.544,6.7a21.515,21.515,0,0,1,.649,4.36s1.464,10.078.542,11.548a8.822,8.822,0,0,0,1.5.82v5.936a17.661,17.661,0,0,0-.7,6.038.956.956,0,0,0,.023.146c-.1.072-.2.133-.271.107l.171,4.089a12.655,12.655,0,0,1-.388,3.463,4.926,4.926,0,0,0-.256,1.3c-.095,1.618.529,3.833,4.089,3.6,4.74-.3,4.009-3.322,4.009-3.322s0-.118-.018-.325a12.315,12.315,0,0,0-1.175-4.441,11.181,11.181,0,0,1-.974-5.014,1.751,1.751,0,0,1-.289.077.741.741,0,0,1,.013-.166c.061-.767.156-1.761.256-2.226a14.588,14.588,0,0,0,0-2.721l.611-5.967.033-.332a4.89,4.89,0,0,0,.841-.511h0a6.115,6.115,0,0,1-.314-1.661,1.467,1.467,0,0,1,.314-1.05c.705-.708,1.191-9.588,1.191-9.588s.383-3.125.386-4.181V330.6c-.043-.636-.381-3.128-.376-4.582a2.881,2.881,0,0,1,.1-.91c.325-.818.767-16.181.767-16.181l.542-6.808v-5.591a32.979,32.979,0,0,0-.97-7.947c1.479.774,4.011,2.517,4.474,2.052.57-.572.854-10.38.69-11.359a1.037,1.037,0,0,0-.038-.2c-.038-.179-.095-.419-.164-.7l.225-.391c1.112-1.924,2.811-4.98,2.946-5.877a38.758,38.758,0,0,1,.739-4.84,2.239,2.239,0,0,1,.11-.273h0c.1-.2.207-.312.33-.281.693.164,1.14.7,1.505.491a.178.178,0,0,0,.049-.041h0a.612.612,0,0,0,.092-.13h0a1.274,1.274,0,0,0,.084-.187h0c.026-.066.049-.141.072-.22V266.6a.475.475,0,0,1,.026-.1.168.168,0,0,0,0-.033.356.356,0,0,1,.02-.087l.015-.064v-.033c.064-.289.112-.588.143-.8a1.056,1.056,0,0,1,.026-.189v-.1Z" transform="translate(-401.787 -157.108)"/><path class="k" d="M559.316,489.447a.869.869,0,0,0-.056-.457C559.278,489.358,559.3,489.527,559.316,489.447Z" transform="translate(-452.72 -370.444)"/><path class="l" d="M674.675,416.108s.966-.659.023-1.048a2.962,2.962,0,0,1-1.533-1.978c-.036-.394-.767-4.768,1.753-3.833s3.7,1.952,3.672,2.75-.434,5.852-.434,5.852Z" transform="translate(-537.424 -310.983)"/><path class="m" d="M674.356,436.116a1.5,1.5,0,0,1-.038.291c-.074.511-.256,1.564-.532,1.715-.365.2-.813-.325-1.505-.488-.123-.028-.23.079-.33.281a2.378,2.378,0,0,0-.11.271,38.542,38.542,0,0,0-.739,4.819c-.138.9-1.835,3.94-2.946,5.854-.166.289-.322.552-.455.767-.307.511-.511.846-.511.846L664.38,445.2v-7.771a6.9,6.9,0,0,0,.511-1.076h0a1.9,1.9,0,0,0,.141-.869.445.445,0,0,0-.12-.256.307.307,0,0,1-.054-.079.411.411,0,0,1-.026-.066.848.848,0,0,1-.036-.2v-.169a15.794,15.794,0,0,1,.767-3.388,9.505,9.505,0,0,0,3.008.731C670.643,432.3,674.356,436.116,674.356,436.116Z" transform="translate(-530.978 -327.518)"/><path class="d" d="M675.531,437.383c-.074.511-.256,1.564-.532,1.715-.365.2-.813-.325-1.505-.488-.123-.028-.23.079-.33.281a2.366,2.366,0,0,0-.11.271c-1.4-.68-3.833-1.911-3.989-2.259s-1.853-.427-2.811-.442h-.174a1.3,1.3,0,0,1-.061-.59,17.732,17.732,0,0,1,.767-3.23,9.506,9.506,0,0,0,3.008.731C671.749,433.6,675.142,436.989,675.531,437.383Z" transform="translate(-532.19 -328.494)"/><path class="m" d="M675.615,436.1s-.2,1.8-.57,2-.813-.325-1.505-.486c-.123-.031-.23.077-.33.279-1.377-.67-3.948-1.957-4.089-2.313s-2.075-.437-2.985-.447c-.335-.7.705-3.833.705-3.833a9.54,9.54,0,0,0,3.008.733C671.922,432.279,675.615,436.1,675.615,436.1Z" transform="translate(-532.236 -327.496)"/><path class="m" d="M641.775,444.26c-.57.57-4.27-2.2-5.285-2.359s-4.7-15.608-4.7-15.608l.555-8.7-2.162-8.009-.281-1.048s.215-.639,1.083,0,2.98,3.363,3.549,3.565a5.089,5.089,0,0,1,2.113,1.589,4.307,4.307,0,0,0,1.26,1.137,15.885,15.885,0,0,1,.935,3.089c-.041.608.327,4.758.767,5.124s1.178,3.7,1.178,3.7,1.344,4.684,1.628,6.021a1.911,1.911,0,0,1,.038.2C642.628,433.933,642.345,443.69,641.775,444.26Z" transform="translate(-505.309 -310.335)"/><path class="d" d="M646.927,473.33l2.683.718s.511,4.635.7,4.881.843,9.757.843,9.757l-4.227-1.911-1.587-5.111v-5.655Z" transform="translate(-516.803 -358.786)"/><path class="l" d="M555.894,764.973a9.053,9.053,0,0,0-.386,1.533,57.914,57.914,0,0,0-.616,7.155,11.489,11.489,0,0,1,.353,2.658,11.151,11.151,0,0,0-.284,1.842c-.043.4-.069.7-.069.7l-4.963-.325s0-.294.015-.744a15.141,15.141,0,0,1,.473-3.7c.335-.935-.031-5.019-.289-7.385-.11-1.022-.2-1.722-.2-1.722S556.73,762.8,555.894,764.973Z" transform="translate(-445.774 -575.185)"/><path class="l" d="M631.889,766.3l-.611,5.936a14.454,14.454,0,0,1,0,2.709c-.092.463-.187,1.449-.255,2.216-.046.58-.077,1.037-.077,1.037s-3.795,2.658-4.661.325a4.126,4.126,0,0,1-.215-.874,17.5,17.5,0,0,1,.7-6.01V764l5.259.859Z" transform="translate(-502.401 -575.178)"/><path class="d" d="M555.932,764.971a9.055,9.055,0,0,0-.386,1.533,7.571,7.571,0,0,1-5.366.2c-.11-1.022-.2-1.722-.2-1.722S556.767,762.793,555.932,764.971Z" transform="translate(-445.812 -575.183)"/><path class="d" d="M634.319,764.841l-.148,1.439a6.263,6.263,0,0,1-5.111-.256V763.98Z" transform="translate(-504.684 -575.163)"/><path class="n" d="M551.635,506.21s-.432,3.2-.92,3.851-.271,1.572-.767,1.679-.652,2.494-.652,2.494l-.414,5.259s-.11,1.083-.705,1.354,0,1.735,0,1.735-.639,1.247-.256,1.952-.767,3.956-.767,3.956-.488,6.289,0,7.155a7.111,7.111,0,0,1,.767,2.765c0,.542.271,10.679.271,10.679s-.652,4.122-.869,4.881.6,2.438.056,3.307a6.37,6.37,0,0,0-.434,2.811s-.838,7.653-.35,10.464-.156,3.414-.156,3.414a7.587,7.587,0,0,0,7.636-.325s0-5.53.652-6.506.544-3.739.544-3.739.161-2.44.649-2.928.373-2.65.373-2.65.432-1.411.92-2.555a22.1,22.1,0,0,0,.767-4.344,5.469,5.469,0,0,1,.767-1.574c.544-.767,0-2.438,0-2.438a2.961,2.961,0,0,1-.215-2.169c.381-1.083,2.492-9.866,2.492-9.866l.815-3.143,1.191,4.012a27.373,27.373,0,0,0,0,3.685,11.688,11.688,0,0,0,1.3,2.555v8.512s.11,5.747.544,6.667a21.346,21.346,0,0,1,.649,4.344s1.464,10.03.542,11.5c0,0,4.176,2.98,7.482.542,0,0-.705-2.006,0-2.711s1.191-9.542,1.191-9.542.434-3.524.381-4.344-.6-4.661-.271-5.474.767-16.1.767-16.1l.542-6.774v-5.545a32.575,32.575,0,0,0-1.227-8.877c-.917-3.233-2.187-6.94-3.256-7.173C571.657,507,554.834,508.868,551.635,506.21Z" transform="translate(-443.176 -383.264)"/><path class="d" d="M554.962,815.843c-.043.4-.069.7-.069.7l-4.963-.325s0-.294.015-.744c2.328-2.065,4.648.365,4.648.365Z" transform="translate(-445.774 -612.882)"/><path class="n" d="M542.547,816.5v3.01a24.154,24.154,0,0,1-1.382,2.466,5.394,5.394,0,0,0-.371,1.932c-.049.613-.064,1.129-.064,1.129s.652,2.6-4.444,2.494-3.036-3.877-3.036-3.877l.028-.049c.256-.475,2.318-4.165,2.555-4.37a4.987,4.987,0,0,0,.434-1.561l.948-1.533c2.333-2.085,4.664.353,4.664.353Z" transform="translate(-433.051 -613.369)"/><path class="d" d="M540.731,849.231s.652,2.6-4.444,2.494-3.036-3.866-3.036-3.866l.028-.049c.141.767.741,1.561,2.655,1.459a11.75,11.75,0,0,0,4.855-1.158C540.746,848.715,540.731,849.231,540.731,849.231Z" transform="translate(-433.051 -637.571)"/><path class="d" d="M631.272,814.079c-.046.58-.077,1.037-.077,1.037s-3.795,2.658-4.661.325a4.131,4.131,0,0,1-.215-.874,2.082,2.082,0,0,0,.215-.184c.621-.92,3.928-.948,4.089-.511C630.723,814.123,631.037,814.123,631.272,814.079Z" transform="translate(-502.644 -612.102)"/><path class="n" d="M627.628,827.705c-3.578.225-4.193-1.975-4.089-3.578a4.854,4.854,0,0,1,.256-1.291,12.546,12.546,0,0,0,.388-3.447l-.171-4.066c.135.054.463-.271.463-.271.621-.92,3.928-.948,4.089-.511s.922.141.922.141a11.063,11.063,0,0,0,.974,4.986,12.233,12.233,0,0,1,1.175,4.421c.015.2.018.322.018.322S632.368,827.406,627.628,827.705Z" transform="translate(-500.565 -612.601)"/><path class="d" d="M627.628,856.293c-3.578.225-4.193-1.975-4.089-3.578,0,0,.928,1.577,4.232,1.2a9.275,9.275,0,0,0,3.859-1.245c.015.2.018.322.018.322S632.368,855.995,627.628,856.293Z" transform="translate(-500.565 -641.189)"/><g class="o" transform="translate(126.996 123.751)"><path d="M643.064,513.339c-.733-2.1-1.533-3.833-2.259-3.979l-.647.066c.675.363,1.416,1.978,2.093,3.912a40.539,40.539,0,0,1,2.223,13.349v4.268l-.542,6.777s-.434,15.286-.767,16.1.217,4.661.271,5.476-.381,4.344-.381,4.344-.488,8.837-1.191,9.539,0,2.711,0,2.711a4.855,4.855,0,0,1-2.555.943,4.973,4.973,0,0,0,3.376-.943s-.705-2.006,0-2.711,1.191-9.539,1.191-9.539.434-3.524.381-4.344-.6-4.664-.271-5.476.767-16.1.767-16.1l.542-6.777v-4.268A40.54,40.54,0,0,0,643.064,513.339Z" transform="translate(-639.31 -509.36)"/></g><g class="o" transform="translate(103.282 122.946)"><path d="M547.486,573.974s.644-.6.156-3.417.325-10.462.325-10.462a6.354,6.354,0,0,1,.434-2.811c.542-.859-.271-2.555-.056-3.307s.869-4.881.869-4.881-.279-10.142-.279-10.687a7.09,7.09,0,0,0-.767-2.762c-.488-.869,0-7.155,0-7.155s1.137-3.253.767-3.956.256-1.952.256-1.952-.6-1.464,0-1.735.705-1.354.705-1.354l.432-5.259s.164-2.384.652-2.494.271-1.022.767-1.679a12.212,12.212,0,0,0,.846-3.342,3.378,3.378,0,0,1-.9-.511s-.434,3.2-.922,3.848-.271,1.572-.767,1.679-.649,2.494-.649,2.494l-.419,5.262s-.11,1.083-.705,1.354,0,1.735,0,1.735-.639,1.247-.256,1.952-.767,3.956-.767,3.956-.488,6.289,0,7.155a7.091,7.091,0,0,1,.767,2.762c0,.544.271,10.679.271,10.679s-.652,4.122-.866,4.881.6,2.438.054,3.307a6.369,6.369,0,0,0-.434,2.811s-.82,7.656-.332,10.467-.156,3.417-.156,3.417a7.467,7.467,0,0,0,4.022.856A7.28,7.28,0,0,1,547.486,573.974Z" transform="translate(-546.51 -506.21)"/></g><path class="n" d="M584.861,305.052a20.148,20.148,0,0,1,1.689,2.18,2.985,2.985,0,0,0,2.32,1.3,6.227,6.227,0,0,1,.813-.069,1.751,1.751,0,0,1,.877.383,5.607,5.607,0,0,1,1.891,3.578c.248,1.354.255,2.765.624,4.1a2.044,2.044,0,0,0,.69,1.2,2.973,2.973,0,0,0,1.766.227,3.119,3.119,0,0,1,2.228.736,1.77,1.77,0,0,1,.348,2.187,1.331,1.331,0,0,0-.286.5.915.915,0,0,0,.255.657l1.671,2.274a2.426,2.426,0,0,1,.646,1.533,1.2,1.2,0,0,1-2.116.687c.181.565-.376,1.15-.963,1.227a3.094,3.094,0,0,1-1.694-.445l-.043.963c-.491.256-1.009-.256-1.4-.654s-1.2-.629-1.382-.107a.674.674,0,0,0,.158.634c.682.851,2.282.634,2.752,1.62a1.329,1.329,0,0,1-.815,1.7,2.233,2.233,0,0,1-2-.409c-.57-.409-1.127-1.122-1.871-1.117-.928,0-1.482,1.073-2.348,1.408a2.4,2.4,0,0,1-2.384-.693c-.636-.6-1.078-1.372-1.666-2.021-1.513-1.669-3.8-2.331-5.941-3.043s-4.4-1.684-5.5-3.647a14.923,14.923,0,0,0-.971-1.832c-.721-.94-1.932-1.38-2.721-2.262a3.493,3.493,0,0,1-.534-3.733,12.508,12.508,0,0,1,1.556-2.1,7.063,7.063,0,0,0,1.388-4.145,5.251,5.251,0,0,1,.12-1.676,2.61,2.61,0,0,1,1.894-1.559,7.782,7.782,0,0,1,2.555-.059,23.435,23.435,0,0,0,2.8.256c.618-.028,1.094-.511,1.692-.675A4.133,4.133,0,0,1,584.861,305.052Z" transform="translate(-459.7 -232.725)"/><g class="o" transform="translate(109.047 77.348)"><path d="M658.673,329.477c.256,1.362.256,2.765.626,4.1a2.586,2.586,0,0,0,.406.922c-.031-.089-.059-.181-.082-.271-.355-1.339-.376-2.742-.624-4.1a7.3,7.3,0,0,0-.82-2.356A8.108,8.108,0,0,1,658.673,329.477Z" transform="translate(-635.409 -327.77)"/><path d="M681.408,363.708a1.314,1.314,0,0,0-.289.511.91.91,0,0,0,.256.654c.023.031.043.061.066.089a.4.4,0,0,1,0-.095,1.34,1.34,0,0,1,.289-.5,1.733,1.733,0,0,0-.156-1.973A1.577,1.577,0,0,1,681.408,363.708Z" transform="translate(-652.486 -353.551)"/><path d="M607.325,379.851a1.4,1.4,0,0,1-.9,1.38,2.232,2.232,0,0,1-2-.411c-.57-.411-1.127-1.119-1.868-1.114-.93,0-1.482,1.073-2.351,1.405a2.391,2.391,0,0,1-2.384-.693c-.636-.6-1.078-1.372-1.664-2.019-1.513-1.669-3.805-2.333-5.944-3.046s-4.385-1.679-5.492-3.634c.1.217.2.432.317.639,1.1,1.963,3.363,2.934,5.5,3.647s4.431,1.375,5.944,3.043c.588.649,1.022,1.423,1.664,2.021a2.4,2.4,0,0,0,2.384.693c.869-.335,1.421-1.4,2.351-1.408.741,0,1.278.675,1.871,1.117a2.146,2.146,0,0,0,2,.409,1.33,1.33,0,0,0,.818-1.7A1.2,1.2,0,0,0,607.325,379.851Z" transform="translate(-580.721 -360.489)"/><path d="M668.907,384.87a1.4,1.4,0,0,1,.072.524,1.2,1.2,0,0,1-2.118.69c.182.562-.376,1.147-.963,1.227a3.073,3.073,0,0,1-1.694-.445c-.015.319-.028.641-.043.961-.491.256-1.022-.256-1.4-.652s-1.2-.631-1.385-.107a.677.677,0,0,0,.158.631,1.309,1.309,0,0,0,.141.151.468.468,0,0,1,.026-.133c.189-.511.994-.286,1.385.107s.907.912,1.4.654c0-.322.028-.641.041-.963a3.215,3.215,0,0,0,1.7.445c.588-.066,1.145-.662.961-1.227a1.2,1.2,0,0,0,2.118-.687A1.924,1.924,0,0,0,668.907,384.87Z" transform="translate(-637.772 -370.279)"/><path d="M572.088,356.765c-.718-.94-1.932-1.377-2.719-2.262a2.956,2.956,0,0,1-.3-.394,3.248,3.248,0,0,0,.623,1.045c.787.882,2,1.321,2.719,2.262a3.467,3.467,0,0,1,.273.419A5.776,5.776,0,0,0,572.088,356.765Z" transform="translate(-569.07 -347.379)"/></g><path class="l" d="M592.073,362.39s.6,6.613-2.116,8.617,5.8,7.482,5.8,7.482l6.452-1.411s-3.146-2.926-3.146-4.173.542-8.241,1.411-9.054S592.073,362.39,592.073,362.39Z" transform="translate(-475.176 -276.195)"/><path class="m" d="M546.138,286.552l-1.474,3.222s-2.2,1.3-2.359,1.423-1.911,2.116-1.911,2.116l-4.311,2.765s-.1-.2-.256-.475a12.871,12.871,0,0,0-1-1.6c-.365-.406,0-4.715,0-4.715a3.381,3.381,0,0,0,.549-2.724c-.3-1.748-.345-8.619-.345-8.619s-.325-5.775.123-6.994-1.022-5.083-1.022-5.083-4.145-4.119-3.861-4.97,3.457,0,3.457,0a7.153,7.153,0,0,0,1.909.693c.394.023,2.5.033,4.109.036h1.909s1.342,4.674,1.181,5.162c-.033.095-.066.189-.1.281-.13.376-.23.71-.066.938a32.005,32.005,0,0,1,.652,3.741l.447,3.741a32.31,32.31,0,0,1,.649,3.335c-.041.409-1.058,1.26-.611,2.032a11.276,11.276,0,0,1,.613,3.13,8.9,8.9,0,0,0,1.485,2.389A1.247,1.247,0,0,0,546.138,286.552Z" transform="translate(-431.128 -200.357)"/><circle class="d" cx="7.807" cy="7.807" r="7.807" transform="translate(114.063 74.979)"/><circle class="p" cx="7.807" cy="7.807" r="7.807" transform="translate(114.063 74.654)"/><path class="m" d="M581.578,406.686c-.705.767-.866,8.177-.45,8.837s-2.1,1.952-3.562,1.9a27.526,27.526,0,0,0-5.471,1.193s-8.026-2.17-9.711-1.083-4.066-1.952-3.36-3.036-.767-2.6-.976-3.2a4.765,4.765,0,0,1-.087-.767h0c-.2-2.729-.4-11.474-.4-11.474v-10.04l7.375-5.205a35.374,35.374,0,0,1,3.422,1.98,16.764,16.764,0,0,1,2.213,1.7c2.009,1.9,6.994,3.9,6.994,3.9s5.476,6.56,6.179,7.211S582.281,405.927,581.578,406.686Z" transform="translate(-451.455 -292.142)"/><path class="d" d="M557.57,418.272V409.64s.225,15.723.4,20.106C557.774,427.017,557.57,418.272,557.57,418.272Z" transform="translate(-451.462 -311.371)"/><path class="d" d="M559.26,490.86a.859.859,0,0,1,.056.455C559.3,491.392,559.278,491.223,559.26,490.86Z" transform="translate(-452.72 -371.836)"/><path class="d" d="M568.413,388.581a6.619,6.619,0,0,0-1.178,1.666c-.406.894-9.664.164-9.664.164v-1.4l7.375-5.205a35.388,35.388,0,0,1,3.422,1.98C568.413,387.319,568.413,388.581,568.413,388.581Z" transform="translate(-451.462 -292.142)"/><path class="d" d="M559.26,488.31a.861.861,0,0,1,.056.455C559.3,488.844,559.278,488.675,559.26,488.31Z" transform="translate(-452.72 -369.938)"/><path class="d" d="M562.371,361.884l-1.474,3.222s-2.2,1.3-2.359,1.423-1.911,2.116-1.911,2.116l-4.311,2.765s-.1-.2-.256-.475a30.016,30.016,0,0,1,3.066-3.47c1.383-1.055-.041-1.178,0-1.382s3.051-1.3,3.864-2.072a34.126,34.126,0,0,1,3.153-2.3A1.245,1.245,0,0,0,562.371,361.884Z" transform="translate(-447.36 -275.689)"/><path class="m" d="M516.815,362.39a36.808,36.808,0,0,0-3.386,2.438c-.813.772-3.833,1.871-3.864,2.075s1.382.325,0,1.382-4.756,6.015-5.977,6.389-9.552,3.833-9.552,3.833-2.724,2.555-3.13,2.555,2.479,2.765,2.479,2.765,2.6,2.075,2.888,2.4,7.406,4.173,7.406,4.173,1.221.365,1.342.731,1.748,1.382,1.748,1.382,1.817,2.088,1.641,2.831-.488-21.21-.488-21.21,9.258.731,9.665-.164a6.619,6.619,0,0,1,1.178-1.666s-.026-7.521-.544-8.078S516.825,363.08,516.815,362.39Z" transform="translate(-401.804 -276.195)"/><path class="d" d="M508.2,414.467s2.438,2.642,3.578,3.089a3.079,3.079,0,0,1,1.584,1.628,9.306,9.306,0,0,0,2.075.894,5.138,5.138,0,0,1,1.83,1.219s2.724.767,2.724,1.342,1.1,1.344,1.1,1.344l-.273-15.613s-4.526.567-5.826,2.479S508.2,414.467,508.2,414.467Z" transform="translate(-414.708 -310.426)"/><path class="d" d="M529,416.2c.2-.123,5.755-7.273,5.755-7.273l1.022-.21a40.886,40.886,0,0,0-2.594,4.27C533.224,413.315,529,416.2,529,416.2Z" transform="translate(-430.193 -310.686)"/><path class="d" d="M538.11,422.906s1.464-3.376,1.871-3.946,2.594-4.39,2.594-4.39a2.572,2.572,0,0,1,0,.976C542.459,415.912,538.11,422.906,538.11,422.906Z" transform="translate(-436.975 -315.041)"/><path class="d" d="M567.755,348.7s-3.253,5.936-2.967,6.222S567.755,348.7,567.755,348.7Z" transform="translate(-456.822 -266.004)"/><path class="d" d="M573.755,357.93a39.191,39.191,0,0,0-2.44,3.871A39.2,39.2,0,0,0,573.755,357.93Z" transform="translate(-461.683 -272.875)"/><path class="l" d="M540.78,222.33l-5.124.365s0-.166-.018-.452c-.072-1.692-.33-7.59-.468-8.249-.164-.767-.327-2.154-.327-2.154s-2.765-.406-2.724-.854-3.537-5.205-.813-5.111c2.126.064,5.76,2.576,7.255,3.677a1.365,1.365,0,0,1,.544,1.262,5.472,5.472,0,0,0-.046.971,13.627,13.627,0,0,1-.054,2.016,3.093,3.093,0,0,0,.23,1.71,32.1,32.1,0,0,1,1.278,5.282C540.672,221.681,540.78,222.33,540.78,222.33Z" transform="translate(-431.148 -159.676)"/><path class="d" d="M554.9,270.647l-.1.279c-1.112-1.1-8.075-1.8-8.075-1.8-.611-.71-.064-1.022.588-1.891.381-.511,2.663-1.237,4.495-1.75h1.909S555.059,270.159,554.9,270.647Z" transform="translate(-443.191 -204.05)"/><path class="d" d="M556.381,265.759l-5.124.365s0-.166-.018-.452a22.3,22.3,0,0,1,4.127-1.462h.741C556.274,265.109,556.381,265.759,556.381,265.759Z" transform="translate(-446.75 -203.104)"/><path class="m" d="M554.9,270.007c-.033.095-.066.189-.1.281-1.112-1.1-8.075-1.807-8.075-1.807-.611-.71-.064-1.022.588-1.888.381-.511,2.663-1.239,4.495-1.753h1.909S555.059,269.519,554.9,270.007Z" transform="translate(-443.191 -203.573)"/><path class="d" d="M596.082,442.57s-.57,10.937,0,11.466S596.082,442.57,596.082,442.57Z" transform="translate(-479.944 -335.886)"/><path class="d" d="M612.305,460.55s-.2,12.036,0,12.156S612.305,460.55,612.305,460.55Z" transform="translate(-492.143 -349.272)"/><path class="d" d="M631,466.12s.767,8.295,1.464,8.619S631,466.12,631,466.12Z" transform="translate(-506.128 -353.418)"/><path class="d" d="M641.8,433.372a1.7,1.7,0,0,1-.652-.256c-.69-.447-1.464-5.246-2.479-5.9s-4.676-7.035-4.676-7.035A33.564,33.564,0,0,0,632,416.974c-.57-.657-.284-3.578-.284-3.578a15.932,15.932,0,0,1-2.157-3.212,2.914,2.914,0,0,1-.281-1.045s.217-.641,1.083,0,2.98,3.363,3.549,3.565a5.1,5.1,0,0,1,2.116,1.587,4.4,4.4,0,0,0,1.26,1.14,15.83,15.83,0,0,1,.935,3.089c-.041.611.325,4.756.767,5.124s1.178,3.7,1.178,3.7S641.518,432.036,641.8,433.372Z" transform="translate(-504.847 -310.786)"/><path class="d" d="M666.05,444.769V444.6a1.593,1.593,0,0,1,.043.368A.844.844,0,0,1,666.05,444.769Z" transform="translate(-532.221 -337.397)"/><path class="d" d="M668.2,463.459c-.166.289-.322.552-.455.767-.672-.693-1.428-5.21-2.412-5.839a4.6,4.6,0,0,1-.894-1v-5.366a6.9,6.9,0,0,0,.511-1.076c.12,1.451.4,3.6.713,3.864.447.365,1.178,3.7,1.178,3.7S667.716,461.581,668.2,463.459Z" transform="translate(-531.023 -342.117)"/><path class="m" d="M642.442,432.736a1.6,1.6,0,0,1-.652-.256c-.693-.447-1.464-5.244-2.481-5.9s-4.674-7.032-4.674-7.032a33.564,33.564,0,0,0-1.993-3.212c-.57-.657-.284-3.578-.284-3.578a16.016,16.016,0,0,1-2.157-3.212,2.939,2.939,0,0,1-.281-1.048s.215-.639,1.083,0,2.98,3.363,3.549,3.565a5.089,5.089,0,0,1,2.113,1.589,4.306,4.306,0,0,0,1.26,1.137,15.886,15.886,0,0,1,.935,3.089c-.041.608.327,4.758.767,5.124s1.178,3.7,1.178,3.7S642.158,431.4,642.442,432.736Z" transform="translate(-505.324 -310.313)"/><circle class="n" cx="0.549" cy="0.549" r="0.549" transform="translate(128.273 106.137)"/><circle class="n" cx="0.549" cy="0.549" r="0.549" transform="translate(131.882 111.077)"/><path class="d" d="M670.355,454.025s-2.645-1.209-2.239-.557S670.355,454.025,670.355,454.025Z" transform="translate(-533.728 -343.856)"/><path class="d" d="M670.6,461.824s-2.686-.731-2.116-.3A4.318,4.318,0,0,0,670.6,461.824Z" transform="translate(-533.978 -349.894)"/><path class="d" d="M671.027,467.911s-1.83-1.324-1.382-.836A4.3,4.3,0,0,0,671.027,467.911Z" transform="translate(-534.845 -354.049)"/><path class="d" d="M679.19,476.14s-1.865,3.67-.974,3.91S679.19,476.14,679.19,476.14Z" transform="translate(-541.099 -360.878)"/><path class="d" d="M569.283,711.77s-4.283,4.066-3.036,4.012S569.283,711.77,569.283,711.77Z" transform="translate(-457.752 -536.295)"/><path class="d" d="M555.24,731.84c.217,0,4.554-.434,3.414-.652A9.007,9.007,0,0,0,555.24,731.84Z" transform="translate(-449.728 -550.725)"/><path class="d" d="M637.76,709.23s4.6.161,4.5.649S637.76,709.23,637.76,709.23Z" transform="translate(-511.16 -534.404)"/><path class="d" d="M634.79,716.44s2.655,2.006,3.253,1.354S634.79,716.44,634.79,716.44Z" transform="translate(-508.949 -539.771)"/><path class="l" d="M570.444,597.026a1.347,1.347,0,0,1-.169.411.416.416,0,0,1-.118.123,7.307,7.307,0,0,1-2.17,1.022c-.1-.026-.488-.143-.915-.256-.5-.146-1.05-.3-1.257-.33s-.327-.358-.358-.68,0-.572.135-.621a.321.321,0,0,0,.115-.169,2.018,2.018,0,0,0,.072-.227l.02-.077c.072-.3.13-.672.171-.981.023-.166.038-.314.051-.414v-.118h0v-.02l.358-.018h.34a21.058,21.058,0,0,1,3.1.031.872.872,0,0,1,.565.649,2.991,2.991,0,0,1,.128.733A3.272,3.272,0,0,1,570.444,597.026Z" transform="translate(-457.326 -449.09)"/><path class="l" d="M635.687,602.121a.376.376,0,0,0,0,.054c0,.555-.038.974-.038,1.043a27.164,27.164,0,0,1-7.045,1.625c-.925-.072-.238-.705.279-1.359a2.145,2.145,0,0,0,.409-.693.511.511,0,0,0,0-.279c-.028-.1-.054-.194-.072-.279h0c-.133-.585-.066-.767.072-.91a1.084,1.084,0,0,0,.187-.35,1.4,1.4,0,0,0,.079-.363,1.1,1.1,0,0,0-.207-.784c-.434-.578,1.628-.887,1.628-.887h3.917c.383,0,.588.542.69,1.242a.073.073,0,0,0,0,.023c.028.2.051.422.064.644s.023.419.026.624S635.687,601.914,635.687,602.121Z" transform="translate(-504.005 -452.297)"/><path class="l" d="M579.2,670.149a31.624,31.624,0,0,1-3.9.767c.166-.1.2-.457.189-.856a5.691,5.691,0,0,0-.051-.59c-.056-.452-.138-.83-.138-.83a10.807,10.807,0,0,1,3.089-.271.968.968,0,0,1,.611.654.93.93,0,0,1,.033.089A3.718,3.718,0,0,1,579.2,670.149Z" transform="translate(-464.636 -503.942)"/><path class="d" d="M592.521,320.317a18.791,18.791,0,0,0,1.692-.825,2.325,2.325,0,0,1,1.819-.179,2.9,2.9,0,0,1,.8.56c.511.452,1.022.9,1.5,1.388a8.83,8.83,0,0,0,1.566,1.4c1.342.82,3.046.636,4.6.391a2.833,2.833,0,0,0,.907-.256,1.884,1.884,0,0,0,.785-2.032,4.551,4.551,0,0,0-1.168-1.991,16.354,16.354,0,0,0-5.333-3.946c-2.152-.989-4.712-1.482-6.859-.488a7.44,7.44,0,0,0-1.789,1.221c-.746.664-2.675,2.354-2.249,3.5C589.263,320.34,591.409,320.69,592.521,320.317Z" transform="translate(-474.661 -240.017)"/><path class="n" d="M592.521,319.682a18.12,18.12,0,0,0,1.692-.825,2.336,2.336,0,0,1,1.819-.179,3.018,3.018,0,0,1,.8.56c.511.452,1.022.9,1.5,1.388a8.73,8.73,0,0,0,1.566,1.4c1.342.82,3.046.636,4.6.391a2.769,2.769,0,0,0,.907-.256,1.882,1.882,0,0,0,.785-2.032,4.552,4.552,0,0,0-1.168-1.991,16.316,16.316,0,0,0-5.333-3.943c-2.152-.989-4.712-1.482-6.859-.491a7.513,7.513,0,0,0-1.789,1.221c-.746.664-2.675,2.356-2.249,3.5C589.263,319.708,591.409,320.058,592.521,319.682Z" transform="translate(-474.661 -239.546)"/><path class="d" d="M605.382,335.578a2.742,2.742,0,0,1-.9.256c-1.554.256-3.256.427-4.6-.391a8.829,8.829,0,0,1-1.574-1.411c-.48-.486-.994-.935-1.5-1.388a2.97,2.97,0,0,0-.8-.562,2.331,2.331,0,0,0-1.822.181,18.077,18.077,0,0,1-1.689.825c-1.112.373-3.258.023-3.739-1.257a.957.957,0,0,1-.049-.192,1.061,1.061,0,0,0,.049.511c.48,1.278,2.627,1.63,3.739,1.257a18.409,18.409,0,0,0,1.689-.825A2.329,2.329,0,0,1,596,332.4a2.9,2.9,0,0,1,.8.56c.511.452,1.022.9,1.5,1.388a8.83,8.83,0,0,0,1.566,1.4c1.342.82,3.043.636,4.6.391a2.811,2.811,0,0,0,.9-.256,1.816,1.816,0,0,0,.825-1.753A1.717,1.717,0,0,1,605.382,335.578Z" transform="translate(-474.632 -253.303)"/><path class="d" d="M567.034,595.448a10.556,10.556,0,0,1-.284,1.454,12.118,12.118,0,0,0,.255-1.472Z" transform="translate(-458.296 -449.684)"/><path class="d" d="M570.161,597.57a7.307,7.307,0,0,1-2.17,1.022c-.217-.061-1.789-.542-2.172-.6s-.483-1.193-.222-1.3a.322.322,0,0,0,.115-.169,2.2,2.2,0,0,1-.092.227,1.131,1.131,0,0,0,.256,1.193l2.254.583,2.124-1.16c.511-.7-.061-2.323-.353-2.586s-3.774,0-3.774,0l-.077-.074h0v-.02l.358-.018h.34a21.067,21.067,0,0,1,3.1.031C570.7,594.859,570.7,597.192,570.161,597.57Z" transform="translate(-457.33 -449.09)"/><path class="d" d="M634.9,598.92h-3.917s-2.062.309-1.628.887a1.31,1.31,0,0,1-.059,1.5c-.156.164-.222.381,0,1.193s-2.106,2.223-.7,2.331a27.268,27.268,0,0,0,7.045-1.625C635.639,602.988,635.943,598.92,634.9,598.92Zm.529,4.206a25.661,25.661,0,0,1-6.644,1.533c-1.331-.1.866-1.428.657-2.2s-.148-.971,0-1.124a1.236,1.236,0,0,0,.056-1.413c-.409-.544,1.533-.836,1.533-.836h3.693C635.71,599.089,635.424,602.922,635.424,603.126Z" transform="translate(-503.997 -452.283)"/><path class="d" d="M578.39,668.338a10.809,10.809,0,0,0-3.089.271s.434,2.006,0,2.277,3.9-.767,3.9-.767S579.206,668.555,578.39,668.338Zm-3.023,2.5c.419-.256,0-2.2,0-2.2a10.32,10.32,0,0,1,2.985-.256c.784.215.784,1.727.784,1.727S574.946,671.1,575.367,670.842Z" transform="translate(-464.639 -503.92)"/><path class="d" d="M638.828,607.028l-6.458.767h0l6.432-1.385C638.815,606.612,638.825,606.816,638.828,607.028Z" transform="translate(-507.148 -457.859)"/><path class="n" d="M489.81,581.414l6.708-1.444.143.629Z" transform="translate(-364.646 -431.631)"/><path class="d" d="M637.81,611.39a.376.376,0,0,0,0,.054L631,612.752a2.144,2.144,0,0,0,.409-.693Z" transform="translate(-506.128 -461.566)"/><path class="n" d="M485.81,585.739l8.177-.859-7.96,1.531Z" transform="translate(-361.669 -435.286)"/><path class="d" d="M639.487,603.78l-6.028.429a1.4,1.4,0,0,1-.079.363l6.11-.767Z" transform="translate(-507.9 -455.901)"/><path class="n" d="M489.512,577.908l6.851-.488-6.953.874Z" transform="translate(-364.349 -429.732)"/><path class="d" d="M571.555,597.878l-4.725.153c.072-.3.13-.672.171-.981l4.426.095a2.988,2.988,0,0,1,.128.733Z" transform="translate(-458.356 -450.89)"/><path class="n" d="M423.12,570.76l6.445.135-.787.687-5.658.181Z" transform="translate(-314.998 -424.774)"/><path class="d" d="M570.476,604a1.349,1.349,0,0,1-.169.411l-3.2.887c-.5-.146-1.05-.3-1.257-.33s-.327-.358-.358-.68Z" transform="translate(-457.358 -456.064)"/><path class="n" d="M419.81,577.857l7.508-.437-6.884,1.906Z" transform="translate(-312.534 -429.732)"/><path class="d" d="M579.525,671.149l-3.544.948a5.672,5.672,0,0,0-.051-.59c.989-.133,2.637-.335,3.562-.447A.936.936,0,0,1,579.525,671.149Z" transform="translate(-465.13 -505.988)"/><path class="n" d="M572.74,670.739c.135-.054,5.07-.649,5.07-.649l-5.07,1.354Z" transform="translate(-462.756 -505.266)"/><circle class="a" cx="5.527" cy="5.527" r="5.527" transform="translate(184.605 18.962)"/><circle class="a" cx="4.347" cy="4.347" r="4.347" transform="translate(210.32 33.684)"/><circle class="g" cx="5.527" cy="5.527" r="5.527" transform="translate(184.605 18.962)"/><circle class="f" cx="4.347" cy="4.347" r="4.347" transform="translate(210.32 33.684)"/><circle class="a" cx="13.95" cy="13.95" r="13.95" transform="translate(19.677 24.081)"/><circle class="b" cx="13.95" cy="13.95" r="13.95" transform="translate(19.677 24.081)"/><circle class="a" cx="1.533" cy="1.533" r="1.533" transform="translate(211.85 17.087)"/><circle class="e" cx="1.533" cy="1.533" r="1.533" transform="translate(211.85 17.087)"/><path class="m" d="M448.267,788s1.589,2.078-.733,5.216-4.237,5.785-3.463,7.743c0,0,3.5-5.826,6.355-5.908S451.4,791.506,448.267,788Z" transform="translate(-366.836 -593.045)"/><path class="d" d="M448.53,788a2.555,2.555,0,0,1,.325.652c2.783,3.271,4.265,6.322,1.592,6.388-2.492.069-5.481,4.526-6.2,5.65a2.327,2.327,0,0,0,.084.256s3.5-5.826,6.355-5.908S451.661,791.506,448.53,788Z" transform="translate(-367.1 -593.045)"/><path class="q" d="M471.465,797.012c0,.731-.082,1.324-.184,1.324s-.181-.593-.181-1.324.1-.388.2-.388S471.465,796.279,471.465,797.012Z" transform="translate(-387.089 -599.405)"/><path class="q" d="M472.851,800.331c-.641.35-1.2.562-1.25.473s.432-.445,1.073-.795.388-.095.437,0S473.49,799.981,472.851,800.331Z" transform="translate(-387.459 -601.852)"/><path class="m" d="M417.742,788s-1.589,2.078.733,5.216,4.237,5.785,3.463,7.743c0,0-3.5-5.826-6.355-5.908S414.6,791.506,417.742,788Z" transform="translate(-344.711 -593.045)"/><path class="d" d="M417.742,788a2.557,2.557,0,0,0-.325.652c-2.783,3.271-4.265,6.322-1.592,6.388,2.492.069,5.481,4.526,6.2,5.65a2.34,2.34,0,0,1-.084.256s-3.5-5.826-6.355-5.908S414.6,791.506,417.742,788Z" transform="translate(-344.711 -593.045)"/><path class="q" d="M416.57,797.012c0,.731.082,1.324.184,1.324s.181-.593.181-1.324-.1-.388-.2-.388S416.57,796.279,416.57,797.012Z" transform="translate(-346.493 -599.405)"/><path class="q" d="M411.465,800.331c.641.35,1.2.562,1.25.473s-.432-.445-1.073-.795-.388-.095-.437,0S410.823,799.981,411.465,800.331Z" transform="translate(-342.402 -601.852)"/><path class="r" d="M418.55,830.655s4.441-.135,5.78-1.091,6.836-2.09,7.168-.562,6.675,7.6,1.658,7.646-11.653-.782-12.989-1.595S418.55,830.655,418.55,830.655Z" transform="translate(-347.967 -623.012)"/><path class="s" d="M433.246,843.076c-5.014.041-11.653-.782-12.989-1.595-1.022-.621-1.423-2.847-1.559-3.871h-.148s.281,3.578,1.618,4.4,7.975,1.635,12.989,1.595c1.449,0,1.95-.526,1.922-1.29C434.876,842.785,434.324,843.076,433.246,843.076Z" transform="translate(-347.967 -629.978)"/><path class="t" d="M811.283,760.527s-2.839-9.642.531-16.738a15.228,15.228,0,0,0,1.232-9.555,25.64,25.64,0,0,0-1.352-4.485" transform="translate(-639.509 -549.68)"/><path class="m" d="M811.89,706.177c0,1.183-2.139,4.6-2.139,4.6s-2.141-3.427-2.141-4.6a2.141,2.141,0,0,1,4.28,0Z" transform="translate(-637.607 -530.592)"/><path class="m" d="M825.671,728.2c-.641.992-4.3,2.7-4.3,2.7s.066-4.037.708-5.029a2.14,2.14,0,1,1,3.593,2.325Z" transform="translate(-647.851 -546.066)"/><path class="m" d="M822.8,769.786c-1.053.532-5.078.164-5.078.164s2.1-3.452,3.151-3.986A2.145,2.145,0,0,1,822.8,769.8Z" transform="translate(-645.133 -576.469)"/><path class="m" d="M815.178,803.355c-.951.7-4.978,1.022-4.978,1.022s1.482-3.756,2.433-4.459a2.142,2.142,0,1,1,2.555,3.44Z" transform="translate(-639.535 -601.603)"/><path class="m" d="M801.9,738.595c.848.823,4.8,1.676,4.8,1.676s-.969-3.922-1.814-4.745a2.139,2.139,0,1,0-2.982,3.067Z" transform="translate(-632.876 -553.529)"/><path class="m" d="M791.732,776.275c1.055.531,5.078.164,5.078.164s-2.1-3.452-3.151-3.986a2.141,2.141,0,0,0-1.927,3.823Z" transform="translate(-624.951 -581.32)"/><path class="m" d="M789.11,815.589c.948.7,4.975,1.022,4.975,1.022s-1.482-3.759-2.433-4.462a2.144,2.144,0,0,0-2.555,3.442Z" transform="translate(-623.18 -610.708)"/><path class="m" d="M811.89,706.177c0,1.183-2.139,4.6-2.139,4.6s-2.141-3.427-2.141-4.6a2.141,2.141,0,0,1,4.28,0Z" transform="translate(-637.607 -530.592)"/><path class="m" d="M825.671,728.2c-.641.992-4.3,2.7-4.3,2.7s.066-4.037.708-5.029a2.14,2.14,0,1,1,3.593,2.325Z" transform="translate(-647.851 -546.066)"/><path class="m" d="M822.8,769.786c-1.053.532-5.078.164-5.078.164s2.1-3.452,3.151-3.986A2.145,2.145,0,0,1,822.8,769.8Z" transform="translate(-645.133 -576.469)"/><path class="m" d="M815.178,803.355c-.951.7-4.978,1.022-4.978,1.022s1.482-3.756,2.433-4.459a2.142,2.142,0,1,1,2.555,3.44Z" transform="translate(-639.535 -601.603)"/><path class="m" d="M801.9,738.595c.848.823,4.8,1.676,4.8,1.676s-.969-3.922-1.814-4.745a2.139,2.139,0,1,0-2.982,3.067Z" transform="translate(-632.876 -553.529)"/><path class="m" d="M791.732,776.275c1.055.531,5.078.164,5.078.164s-2.1-3.452-3.151-3.986a2.141,2.141,0,0,0-1.927,3.823Z" transform="translate(-624.951 -581.32)"/><path class="m" d="M789.11,815.589c.948.7,4.975,1.022,4.975,1.022s-1.482-3.759-2.433-4.462a2.144,2.144,0,0,0-2.555,3.442Z" transform="translate(-623.18 -610.708)"/><path class="r" d="M788.27,837.987s3.46-.687,4.38-1.6,5.072-2.517,5.535-1.372,6.222,5.034,2.3,5.722-9.222.915-10.375.457S788.27,837.987,788.27,837.987Z" transform="translate(-623.209 -627.748)"/><path class="s" d="M800.49,850.041c-3.92.687-9.222.917-10.375.46-.876-.35-1.487-2.024-1.73-2.811l-.115.023s.693,2.747,1.845,3.2,6.455.23,10.375-.457c1.13-.2,1.454-.664,1.331-1.252C801.724,849.6,801.331,849.9,800.49,850.041Z" transform="translate(-623.209 -637.482)"/><path class="c" d="M255.5,94.994v.092a.293.293,0,0,0,0,.049v.273a.033.033,0,0,1,0,.015v.166l-.023.179a.6.6,0,0,1-.02.118h0a.469.469,0,0,0,0,.059v.036a.129.129,0,0,1,0,.031.107.107,0,0,1-.013.061c-.013.02,0,.041-.013.061s0,.031,0,.046a.792.792,0,0,1-.018.079h0a.407.407,0,0,1-.013.054.637.637,0,0,1-.018.066.3.3,0,0,1-.02.079.061.061,0,0,0,0,.02.253.253,0,0,1-.026.082c-.023.082-.051.166-.079.256,0,.026-.02.051-.028.077a.28.28,0,0,1-.018.043,5.558,5.558,0,0,1-.746,1.365l-.059.077a5.659,5.659,0,0,1-.48.547l-8.052,7.983L237.9,98.935a5.681,5.681,0,0,1-.626-.744,5.487,5.487,0,0,1-.325-.511,5.65,5.65,0,0,1-.682-3.2,2.089,2.089,0,0,1,.036-.307q.038-.256.1-.537a.374.374,0,0,1,.028-.1l.015-.056v-.031l.023-.082h0c.018-.061.038-.123.059-.184s.018-.056.028-.084c.041-.12.087-.238.138-.355l.031-.069.046-.1.082-.169h0c0-.026.026-.051.041-.077a.683.683,0,0,1,.046-.084c.018-.036.038-.069.059-.1a.51.51,0,0,0,.028-.051.1.1,0,0,0,.018-.028h0l.038-.061c.015-.023.028-.046.043-.066l.1-.153.036-.051.046-.064.049-.066.061-.079.054-.066.02-.026.038-.046a.886.886,0,0,1,.064-.074.377.377,0,0,1,.026-.033h0l.046-.054.056-.059c.049-.054.1-.107.153-.158l.061-.061.095-.089.064-.059.077-.066.049-.043.051-.041.1-.082.051-.041c.087-.066.174-.13.256-.189l.051-.036.054-.036.051-.033.074-.046.038-.023.054-.033c.074-.041.148-.084.222-.123l.043-.023.069-.036.056-.026.059-.028.056-.028.056-.026.059-.026c.077-.033.156-.064.233-.092l.059-.023.061-.023.056-.018.046-.015.107-.036.087-.059.043-.013h.043l.079-.023.1-.026c.1-.026.212-.049.319-.069h.291c.1,0,.2-.023.309-.031h.856c.084,0,.166.015.256.023l.112.015h.238c.107.02.212.043.317.069l.13.033h.036l.056.015.107.031.046.015.233.079.051.02.069.026.107.043.118.051.046.02.066.031.056.028.056.026.072.038.056.028.13.072.054.031.189.115.051.033.054.036.051.036h0l.036.023.222.164.051.041.1.082.051.041.049.043.077.066.064.059.095.089.061.061.064-.061c.031-.031.061-.061.095-.089a.7.7,0,0,1,.064-.059l.074-.066.051-.043.049-.041.1-.082.051-.041c.087-.066.174-.13.256-.189l.054-.036.054-.036.051-.033.074-.046.038-.023.054-.033c.074-.041.148-.084.222-.123l.043-.023.069-.036.056-.026.056-.028.059-.028.056-.026.059-.026c.077-.033.153-.064.233-.092l.056-.023.064-.023.056-.018.046-.015.107-.036.054-.015.046-.013h.043l.077-.023.1-.026q.161-.038.322-.069h.289c.1,0,.207-.023.309-.031h.856l.256.023.11.015h.24c.1.02.212.043.317.069l.13.033h.036l.056.015.107.031.046.015.233.079.051.02.069.026.1.043.12.051.046.02.064.031.056.028.059.026.069.038.056.028.13.072.056.031.189.115.049.033.054.036.056.041h0l.033.023c.077.054.151.107.222.164a.4.4,0,0,1,.051.041c.036.026.069.054.1.082l.051.041.049.043.066.056.064.059.036.036h0l.061.059.028.028.033.033.061.061.095.1a.562.562,0,0,1,.051.059c.031.031.059.064.089.1l.092.11a4.58,4.58,0,0,1,.294.4.384.384,0,0,1,.054.043.48.48,0,0,1,.041.059l.033.054.056.089.049.084.028.051.023.041.023.041.033.061.031.061c.074.143.141.291.2.44l.026.064c.023.061.046.123.066.184a.517.517,0,0,1,.02.056.288.288,0,0,0,.026.079l.023.072.015.046a.262.262,0,0,0,.018.064l.023.082c.013.043.023.089.033.133s.013.046.018.069.013.064.02.1a.255.255,0,0,0,0,.043v.739h0a85.6,85.6,0,0,1,0,.1v.084h0v.087Z" transform="translate(-212.253 -72.943)"/><path class="d" d="M255.971,94.994v.092a.293.293,0,0,0,0,.049v.273a.033.033,0,0,1,0,.015v.166l-.023.179a.6.6,0,0,1-.02.118h0a.469.469,0,0,0,0,.059v.036a.129.129,0,0,1,0,.031.107.107,0,0,1-.013.061c-.013.02,0,.041-.013.061s0,.031,0,.046a.792.792,0,0,1-.018.079h0a.407.407,0,0,1-.013.054.637.637,0,0,1-.018.066.3.3,0,0,1-.02.079.061.061,0,0,0,0,.02.253.253,0,0,1-.026.082c-.023.082-.051.166-.079.256,0,.026-.02.051-.028.077a.28.28,0,0,1-.018.043,5.622,5.622,0,0,0-1.495-5.308,5.714,5.714,0,0,0-.963-.767c-.1-.064-.2-.125-.309-.181a5.622,5.622,0,0,0-6.038.335,5.415,5.415,0,0,0-.736.621,6.178,6.178,0,0,0-.69-.588h0a5.853,5.853,0,0,0-.583-.368,5.645,5.645,0,0,0-5.43,0,5.838,5.838,0,0,0-.8.534,5.717,5.717,0,0,0-1.089,1.155c-.112.158-.217.322-.312.488h0a5.3,5.3,0,0,0-.24.483c-.041.089-.079.181-.115.273a.374.374,0,0,1,.028-.1l.015-.056v-.031l.023-.082h0c.018-.061.038-.123.059-.184s.018-.056.028-.084c.041-.12.087-.238.138-.355l.031-.069.046-.1.082-.169h0c0-.026.026-.051.041-.077a.684.684,0,0,1,.046-.084c.018-.036.038-.069.059-.1a.509.509,0,0,0,.028-.051.1.1,0,0,0,.018-.028h0l.038-.061c.015-.023.028-.046.043-.066l.1-.153.036-.051.046-.064.049-.066.061-.079.054-.066.02-.026.038-.046a.886.886,0,0,1,.064-.074.375.375,0,0,1,.026-.033h0l.046-.054.056-.059c.049-.054.1-.107.153-.158l.061-.061.095-.089.064-.059.077-.066.049-.043.051-.041.1-.082.051-.041c.087-.066.174-.13.256-.189l.051-.036.054-.036.051-.033.074-.046.038-.023.054-.033c.074-.041.148-.084.222-.123l.043-.023.069-.036.056-.026.059-.028.056-.028.056-.026.059-.026c.077-.033.156-.064.233-.092l.059-.023.061-.023.056-.018.046-.015.107-.036.082-.041.043-.013h.043l.079-.023.1-.026c.1-.026.212-.049.319-.069h.291c.1,0,.2-.023.309-.031h.856c.084,0,.166.015.256.023l.112.015h.238c.107.02.212.043.317.069l.13.033h.036l.056.015.107.031.046.015.233.079.051.02.069.026.107.043.118.051.046.02.066.031.056.028.056.026.072.038.056.028.13.072.054.031.189.115.051.033.054.036.051.036h0l.036.023.222.164.051.041.1.082.051.041.049.043.077.066.064.059.095.089.061.061.064-.061c.031-.031.061-.061.095-.089a.7.7,0,0,1,.064-.059l.074-.066.051-.043.049-.041.1-.082.051-.041c.087-.066.174-.13.256-.189l.054-.036.054-.036.051-.033.074-.046.038-.023.054-.033c.074-.041.148-.084.222-.123l.043-.023.069-.036.056-.026.056-.028.059-.028.056-.026.059-.026c.077-.033.153-.064.233-.092l.056-.023.064-.023.056-.018.046-.015.107-.036.054-.015.046-.013h.043l.077-.023.1-.026q.161-.038.322-.069h.289c.1,0,.207-.023.309-.031h.856l.256.023.11.015h.24c.1.02.212.043.317.069l.13.033h.036l.056.015.107.031.046.015.233.079.051.02.069.026.1.043.12.051.046.02.064.031.056.028.059.026.069.038.056.028.13.072.056.031.189.115.049.033.054.036.056.041h0l.033.023c.077.054.151.107.222.164a.4.4,0,0,1,.051.041c.036.026.069.054.1.082l.051.041.049.043.066.056.064.059.036.036h0l.061.059.028.028.033.033.061.061.095.1a.562.562,0,0,1,.051.059c.031.031.059.064.089.1l.092.11a4.58,4.58,0,0,1,.294.4.384.384,0,0,1,.054.043.48.48,0,0,1,.041.059l.033.054.056.089.049.084.028.051.023.041.023.041.033.061.031.061c.074.143.141.291.2.44l.026.064c.023.061.046.123.066.184a.517.517,0,0,1,.02.056.288.288,0,0,0,.026.079l.023.072.015.046a.262.262,0,0,0,.018.064l.023.082c.013.043.023.089.033.133s.013.046.018.069.013.064.02.1a.255.255,0,0,0,0,.043v.739h0a85.6,85.6,0,0,1,0,.1v.084h0v.087Z" transform="translate(-212.721 -72.943)"/></g></svg>